<svg width="47" height="46" viewBox="0 0 47 46" fill="none" xmlns="http://www.w3.org/2000/svg">
<path d="M43.6392 26.3834C44.8163 24.3526 45.6071 22.0701 45.8947 19.6348C45.8947 19.6258 45.8947 19.6168 45.8947 19.6079C45.9756 18.9339 46.0115 18.2599 46.0115 17.568C46.0115 13.003 44.2592 8.84241 41.4016 5.71521C41.3567 5.65231 41.3027 5.58941 41.2398 5.54448C39.3797 3.56752 37.0703 2.02189 34.4732 1.06936C34.4283 1.05138 34.3744 1.03341 34.3295 1.01544C32.4873 0.359447 30.5103 0 28.4435 0C26.143 0 23.9414 0.449309 21.9285 1.25807C21.8746 1.27604 21.8207 1.29401 21.7668 1.32097C19.2866 2.34539 17.094 3.91798 15.3327 5.88595C15.2788 5.93987 15.2248 5.99378 15.1799 6.05669C12.502 9.13895 10.8755 13.1737 10.8755 17.568C10.8755 18.224 10.9115 18.88 10.9834 19.518C10.9834 19.527 10.9834 19.536 10.9834 19.545C11.1181 20.7042 11.3608 21.8364 11.7022 22.9238L2.26675 32.3592C1.91629 32.7097 1.91629 33.2758 2.26675 33.6263C2.44648 33.806 2.67113 33.8869 2.90477 33.8869C3.13841 33.8869 3.36306 33.797 3.54279 33.6263L12.4122 24.7569C12.6638 25.3051 12.9334 25.8443 13.2299 26.3565C13.2569 26.4194 13.2928 26.4733 13.3287 26.5272C15.5573 30.2655 19.1338 33.1141 23.3843 34.3991L17.058 40.7254C16.7076 41.0758 16.7076 41.642 17.058 41.9924C17.2377 42.1722 17.4624 42.253 17.696 42.253C17.9297 42.253 18.1543 42.1632 18.334 41.9924L25.4511 34.8754C26.4306 35.0461 27.4281 35.136 28.4525 35.136C34.8507 35.136 40.467 31.6943 43.5403 26.5632C43.5673 26.5182 43.6122 26.4553 43.6392 26.3834ZM35.8661 26.4194L32.667 21.495L34.3654 16.265L38.4092 15.3574L39.4606 15.1237L44.0525 19.8415C43.7739 21.7735 43.1449 23.5887 42.2283 25.2242L35.8661 26.4194ZM24.22 21.495L21.0209 26.4104L14.6317 25.1883C13.7152 23.5348 13.0861 21.7016 12.8165 19.7606L17.4175 15.1237L22.5126 16.265L23.6449 19.7516L24.22 21.495ZM15.3596 8.76153L16.1684 13.8297L12.6638 17.3613C12.7087 14.1802 13.6972 11.2237 15.3596 8.76153ZM25.8555 20.7311L24.2649 15.8426L28.4166 12.8233L32.5682 15.8426L30.9776 20.7311H25.8555ZM44.2143 17.4332L40.6917 13.8208L41.3117 8.47397C43.118 11.0081 44.1873 14.0993 44.2143 17.4332ZM39.7302 6.55991L38.9304 13.3984L36.9984 13.8297L33.8712 14.5307L29.3601 11.2507V6.38918L34.2396 2.89355C36.3154 3.72028 38.1845 4.97835 39.7302 6.55991ZM32.0919 2.21959L28.4076 4.86153L24.3009 2.34539C25.6218 1.98595 27.0147 1.78825 28.4525 1.78825C29.6926 1.79724 30.9147 1.94102 32.0919 2.21959ZM22.1172 3.12719L27.5269 6.44309V11.2597L24.3458 13.5691L23.0159 14.5396L17.9207 13.3984L16.8783 6.85646C18.343 5.27489 20.1223 3.99885 22.1172 3.12719ZM16.0246 27.291L20.8771 28.2256L23.3483 32.503C20.4278 31.4966 17.8937 29.6634 16.0246 27.291ZM25.7746 33.1231L22.5036 27.4438L25.6937 22.5284H31.1933L34.3834 27.4438L31.1124 33.1231C30.2407 33.2758 29.3511 33.3477 28.4435 33.3477C27.5359 33.3477 26.6373 33.2669 25.7746 33.1231ZM33.5387 32.503L36.0099 28.2256L40.8444 27.318C38.9753 29.6814 36.4502 31.5056 33.5387 32.503Z" fill="#666979"/>
<path d="M12.3762 32.3589L0.262846 44.4723C-0.0876153 44.8227 -0.0876153 45.3889 0.262846 45.7393C0.44257 45.9101 0.667222 45.9999 0.900863 45.9999C1.1345 45.9999 1.35917 45.9101 1.53889 45.7393L13.6523 33.6349C14.0027 33.2845 14.0027 32.7183 13.6523 32.3679C13.3018 32.0084 12.7267 32.0084 12.3762 32.3589Z" fill="#F9DD47"/>
</svg>
