<svg width="51" height="51" viewBox="0 0 51 51" fill="none" xmlns="http://www.w3.org/2000/svg">
<path d="M25.5174 44.709C24.973 44.709 24.5215 45.1605 24.5215 45.7049C24.5215 46.2493 24.973 46.7008 25.5174 46.7008C26.0619 46.7008 26.5133 46.2493 26.5133 45.7049C26.5133 45.1605 26.0619 44.709 25.5174 44.709Z" fill="#C8CCDF"/>
<path d="M25.5174 0C24.973 0 24.5215 0.451471 24.5215 0.995892V7.56878C24.5215 8.1132 24.973 8.56467 25.5174 8.56467C26.0619 8.56467 26.5133 8.1132 26.5133 7.56878V0.995892C26.5133 0.438193 26.0619 0 25.5174 0Z" fill="#F9DD47"/>
<path d="M11.4289 14.978L5.79875 9.34789C5.41367 8.96281 4.7763 8.96281 4.39123 9.34789C4.00615 9.73297 4.00615 10.3703 4.39123 10.7554L10.0213 16.3855C10.4064 16.7706 11.0438 16.7706 11.4289 16.3855C11.8139 16.0005 11.8139 15.3631 11.4289 14.978Z" fill="#F9DD47"/>
<path d="M46.6436 9.34789C46.2585 8.96281 45.6211 8.96281 45.236 9.34789L39.5926 14.978C39.2076 15.3631 39.2076 16.0005 39.5926 16.3855C39.9777 16.7706 40.6151 16.7706 41.0002 16.3855L46.6303 10.7554C47.0286 10.3703 47.0286 9.73297 46.6436 9.34789Z" fill="#F9DD47"/>
<path d="M50.8131 18.9216C50.6272 18.6693 50.335 18.5232 50.0164 18.5232C48.0113 18.5232 46.139 19.4395 44.9174 20.9798C44.3464 20.6744 43.709 20.515 43.0451 20.515C40.8541 20.515 39.0615 22.3076 39.0615 24.4986C39.0615 26.1451 40.0707 27.5659 41.5048 28.1768L41.3189 28.4025C40.2832 29.6507 38.3843 30.4872 36.5784 30.4872C35.0514 30.4872 33.2854 29.8764 32.1965 28.8008L31.7052 28.3095C33.3119 27.7917 34.4672 26.2912 34.4672 24.5119C34.4672 22.3209 32.6746 20.5283 30.4836 20.5283H30.3906C30.5367 19.8245 30.5234 19.0809 30.3508 18.3506C29.9259 16.5182 28.3989 15.0443 26.5531 14.6592C23.3928 14.0085 20.5247 16.3987 20.5247 19.5324C20.5247 19.8644 20.5645 20.1963 20.6309 20.5283H20.5247C18.3337 20.5283 16.5411 22.3209 16.5411 24.5119C16.5411 26.2779 17.7096 27.7917 19.303 28.3095L18.8117 28.8008C17.7893 29.8233 16.0631 30.4872 14.4298 30.4872C12.6903 30.4872 10.7782 29.7038 9.68937 28.4025L9.50347 28.1768C10.9376 27.5659 11.9467 26.1584 11.9467 24.4986C11.9467 22.3076 10.1541 20.515 7.96315 20.515C7.29923 20.515 6.66185 20.6744 6.09088 20.9798C4.86925 19.4395 2.99697 18.5232 0.99191 18.5232C0.673224 18.5232 0.381096 18.6693 0.195196 18.9216C0.00929627 19.1739 -0.0438196 19.5058 0.0358518 19.798L6.22366 40.4196H5.57301C5.02859 40.4196 4.57712 40.8711 4.57712 41.4155C4.57712 41.9599 5.02859 42.4114 5.57301 42.4114H6.56891V47.9884C6.56891 49.6349 7.91004 50.976 9.55658 50.976H41.4251C43.0717 50.976 44.4128 49.6349 44.4128 47.9884V42.4114H45.4087C45.9531 42.4114 46.4046 41.9599 46.4046 41.4155C46.4046 40.8711 45.9531 40.4196 45.4087 40.4196H44.758L50.9459 19.798C51.0521 19.5058 50.999 19.1739 50.8131 18.9216ZM42.4476 44.7086H29.501C28.9566 44.7086 28.5051 45.16 28.5051 45.7045C28.5051 46.2489 28.9566 46.7004 29.501 46.7004H42.4476V48.0016C42.4476 48.5461 41.9961 48.9975 41.4517 48.9975H9.58314C9.03872 48.9975 8.58724 48.5461 8.58724 48.0016V46.7004H21.5338C22.0783 46.7004 22.5297 46.2489 22.5297 45.7045C22.5297 45.16 22.0783 44.7086 21.5338 44.7086H8.58724V42.4247H42.4476V44.7086ZM42.6999 40.4329H8.32167L2.41271 20.7408C3.48828 21.0993 4.41778 21.8429 4.98876 22.8786C5.30744 23.4629 6.10416 23.5691 6.56891 23.1043C6.94071 22.7193 7.44529 22.5201 7.97643 22.5201C9.07856 22.5201 9.96822 23.4097 9.96822 24.5119C9.96822 25.7202 8.90593 26.6232 7.7507 26.4904C7.35234 26.4505 6.95398 26.6497 6.7548 27.0082C6.55563 27.3668 6.60874 27.805 6.86103 28.1236L8.16233 29.6905C9.63625 31.4698 12.1326 32.4923 14.4298 32.4923C16.5942 32.4923 18.8117 31.6159 20.2193 30.2216L22.2243 28.2166C22.5032 27.9377 22.5961 27.4995 22.4368 27.1277C22.2774 26.7559 21.9189 26.5169 21.5206 26.5169H20.5247C19.4226 26.5169 18.5329 25.6273 18.5329 24.5252C18.5329 23.423 19.4226 22.5334 20.5247 22.5334H22.0517C22.4102 22.5334 22.7422 22.3475 22.9148 22.0288C23.0874 21.7234 23.0874 21.3383 22.9148 21.0329C22.6492 20.5814 22.5165 20.0636 22.5165 19.5457C22.5165 17.7132 24.1896 16.226 26.1548 16.6244C27.2303 16.8501 28.1598 17.7531 28.4121 18.8154C28.6379 19.8113 28.3723 20.5681 28.0935 21.0329C27.9208 21.3383 27.9208 21.7234 28.0935 22.0288C28.2661 22.3342 28.598 22.5334 28.9566 22.5334H30.4836C31.5857 22.5334 32.4754 23.423 32.4754 24.5252C32.4754 25.6273 31.5857 26.5169 30.4836 26.5169H29.4877C29.0893 26.5169 28.7175 26.7559 28.5715 27.1277C28.4121 27.4995 28.5051 27.9245 28.7839 28.2166L30.789 30.2216C32.2496 31.6823 34.5203 32.4923 36.5784 32.4923C38.9686 32.4923 41.4251 31.3902 42.8459 29.6905L44.1472 28.1236C44.4128 27.805 44.4526 27.3668 44.2535 27.0082C44.0543 26.6497 43.6692 26.4505 43.2576 26.4904C43.1912 26.5037 43.1115 26.5037 43.0318 26.5037C41.9297 26.5037 41.0401 25.614 41.0401 24.5119C41.0401 23.4097 41.9297 22.5201 43.0318 22.5201C43.563 22.5201 44.0676 22.7325 44.4394 23.1043C44.6651 23.3301 44.9705 23.4363 45.2892 23.3965C45.5946 23.3566 45.8734 23.1575 46.0195 22.8919C46.5772 21.8562 47.5067 21.1126 48.5956 20.754L42.6999 40.4329Z" fill="#666979"/>
<path d="M25.5174 30.4736C23.3265 30.4736 21.5339 32.2662 21.5339 34.4572C21.5339 36.6482 23.3265 38.4408 25.5174 38.4408C27.7084 38.4408 29.501 36.6482 29.501 34.4572C29.501 32.2662 27.7084 30.4736 25.5174 30.4736ZM25.5174 36.449C24.4153 36.449 23.5257 35.5593 23.5257 34.4572C23.5257 33.3551 24.4153 32.4654 25.5174 32.4654C26.6196 32.4654 27.5092 33.3551 27.5092 34.4572C27.5092 35.5593 26.6063 36.449 25.5174 36.449Z" fill="#C8CCDF"/>
</svg>
