<svg width="50" height="49" viewBox="0 0 50 49" fill="none" xmlns="http://www.w3.org/2000/svg">
<path d="M40.0578 13.643V4.09769C40.0578 4.00195 40.0387 3.90622 40.0004 3.82005C39.9908 3.8009 39.9812 3.78175 39.9717 3.75303C39.9334 3.66686 39.8855 3.59027 39.8185 3.52325C39.8089 3.51368 39.7993 3.50411 39.7898 3.50411C39.7515 3.46581 39.7132 3.42751 39.6653 3.39879C39.6366 3.38921 39.6174 3.37007 39.5887 3.3605L39.5313 3.33177C39.4451 3.29347 39.3493 3.27433 39.2536 3.27433H39.244C39.2345 3.27433 39.2249 3.2839 39.2153 3.2839C39.1291 3.2839 39.043 3.30305 38.9664 3.33177C38.9472 3.34134 38.9281 3.34134 38.9089 3.35092C38.8898 3.36049 38.8898 3.3605 38.8802 3.3605L33.5187 6.04123C33.0209 6.29016 32.705 6.79758 32.705 7.35287C32.705 7.90817 33.0209 8.41559 33.5187 8.66452L38.4302 11.1251V13.3271C34.1028 12.6282 29.7274 12.2739 25.3425 12.2644V0.823372C25.3425 0.727632 25.3234 0.631889 25.2851 0.545722C25.2755 0.526574 25.2659 0.497851 25.2563 0.478703C25.2181 0.392536 25.1702 0.315947 25.1032 0.248929C25.0936 0.239355 25.084 0.22978 25.0744 0.22978C25.0361 0.191483 24.9978 0.153184 24.95 0.124462C24.9213 0.105313 24.9021 0.105317 24.8734 0.0861688C24.8447 0.0765948 24.8351 0.0670219 24.8064 0.0574478C24.7202 0.0191516 24.6245 0 24.5287 0H24.5191C24.5096 0 24.5 0.00957756 24.4904 0.00957756C24.4043 0.00957756 24.3181 0.0287257 24.2415 0.0574478C24.2223 0.0670219 24.2032 0.0670172 24.1841 0.0765913C24.1649 0.0861653 24.1649 0.0861688 24.1553 0.0861688L18.7843 2.7669C18.2864 3.01583 17.9705 3.52325 17.9705 4.07855C17.9705 4.63384 18.2864 5.14126 18.7843 5.39019L23.6958 7.85072V12.2548C19.5981 12.2739 15.51 12.5803 11.4506 13.1835V4.08812C11.4506 3.99238 11.4314 3.89664 11.3931 3.81047C11.3835 3.79132 11.374 3.77218 11.3644 3.74346C11.3261 3.65729 11.2782 3.5807 11.2112 3.51368C11.2016 3.5041 11.1921 3.49453 11.1825 3.49453C11.1442 3.45623 11.1059 3.41794 11.058 3.38922C11.0293 3.37964 11.0006 3.36049 10.9719 3.35092L10.9144 3.3222C10.8283 3.2839 10.7325 3.26476 10.6368 3.26476H10.6272C10.6176 3.26476 10.608 3.27433 10.5985 3.27433C10.5123 3.27433 10.4261 3.29348 10.3495 3.3222C10.3304 3.33177 10.3113 3.33177 10.2921 3.34135C10.273 3.35092 10.273 3.35092 10.2634 3.35092L4.90191 6.03165C4.40406 6.28058 4.08812 6.788 4.08812 7.3433C4.08812 7.89859 4.40406 8.40602 4.90191 8.65495L9.8134 11.1155V13.4515C4.04982 14.5238 0 16.3142 0 18.7747V39.6079C0.0478703 40.9195 0.622311 42.1546 1.58929 43.0354C5.13169 46.6544 14.1313 49 24.5096 49C34.8878 49 43.897 46.6544 47.4298 43.0354C48.3968 42.145 48.9713 40.9099 49.0191 39.6079V18.8034C49.0383 16.4578 45.3714 14.7345 40.0578 13.643ZM34.5336 7.36245L38.4302 5.41892V9.30598L34.5336 7.36245ZM5.93591 7.36245L9.83255 5.41892V9.30598L5.93591 7.36245ZM19.8183 4.09769L23.7149 2.15416V6.0508L19.8183 4.09769ZM24.5287 13.9015C38.6983 13.9015 47.4011 16.7642 47.4011 18.8034C47.4011 20.0576 44.1555 21.5991 38.4015 22.6235L35.491 18.2673C35.0314 17.5875 34.2751 17.1759 33.4517 17.1759H15.5961C14.7728 17.1759 14.0068 17.5875 13.5569 18.2673L10.6463 22.6235C4.90191 21.6086 1.64673 20.0576 1.64673 18.8034C1.65631 16.7546 10.3591 13.9015 24.5287 13.9015ZM22.9969 23.6862H22.7767C19.3204 23.6383 15.8642 23.3703 12.4367 22.8916L14.9259 19.1673C15.0791 18.9375 15.3281 18.8034 15.6057 18.8034H33.4613C33.739 18.8034 33.9879 18.9375 34.1411 19.1673L36.6207 22.8916C33.1932 23.3703 29.737 23.6383 26.2808 23.6862H26.0606C25.5531 23.6958 25.0457 23.7054 24.5287 23.7054C24.0117 23.7054 23.5043 23.6958 22.9969 23.6862ZM5.73485 43.9353V31.0487C5.73485 29.6987 6.83587 28.5977 8.18581 28.5977C9.53576 28.5977 10.6368 29.6987 10.6368 31.0487V45.7257C8.95174 45.2948 7.305 44.7012 5.73485 43.9353ZM27.7935 47.315H27.7552C25.601 47.4299 23.4469 47.4299 21.3023 47.315H21.264V33.5092C21.264 31.6997 22.7288 30.2444 24.5287 30.2444C26.3286 30.2444 27.7935 31.7093 27.7935 33.5092V47.315ZM38.4207 45.7353V31.0582C38.4207 29.7083 39.5217 28.6073 40.8716 28.6073C42.2216 28.6073 43.3226 29.7083 43.3226 31.0582V43.9449C41.7524 44.7013 40.1057 45.2948 38.4207 45.7353ZM47.4011 39.6366C47.3437 40.5174 46.9416 41.3408 46.281 41.9248C45.8788 42.3269 45.4289 42.6907 44.9502 43.0162V31.0582C44.9502 28.7987 43.1215 26.9701 40.862 26.9701C38.6026 26.9701 36.7739 28.7987 36.7739 31.0582V45.764C36.7739 45.8884 36.7931 46.0129 36.8027 46.1374C34.3708 46.6639 31.9007 47.0278 29.4211 47.2097V33.5092C29.4211 30.7997 27.2286 28.6073 24.5191 28.6073C21.8097 28.6073 19.6172 30.7997 19.6172 33.5092V47.2097C17.1375 47.0278 14.6674 46.6735 12.2356 46.1374C12.2548 46.0129 12.2644 45.8884 12.2644 45.764V31.0582C12.2644 28.7987 10.4357 26.9701 8.17624 26.9701C5.91676 26.9701 4.08812 28.7987 4.08812 31.0582V43.0066C3.60941 42.6907 3.16901 42.3269 2.75733 41.9152C2.09672 41.3312 1.6946 40.5078 1.63716 39.627V21.3118C1.84779 21.4555 2.07756 21.5991 2.31692 21.7427C2.37436 21.7714 2.43181 21.8097 2.48925 21.8384C2.73818 21.9725 2.99667 22.1065 3.27432 22.231C3.31262 22.2501 3.35091 22.2597 3.38921 22.2788C3.64771 22.3937 3.91578 22.5086 4.203 22.6139C4.27002 22.6426 4.33705 22.6618 4.40406 22.6905C4.72001 22.8054 5.04552 22.9203 5.38061 23.0256C5.44763 23.0448 5.52422 23.0639 5.59124 23.0926C5.89761 23.1884 6.22313 23.2841 6.54865 23.3703L6.74971 23.4277C7.12309 23.5234 7.50606 23.6192 7.89859 23.7149L8.17624 23.7819C8.54962 23.8681 8.93259 23.9447 9.32512 24.0309L9.44958 24.0596C9.87084 24.1458 10.3112 24.2224 10.7612 24.2989L11.0772 24.3468C11.5272 24.4234 11.9771 24.4904 12.4463 24.5575L12.5516 24.567C12.992 24.6245 13.442 24.6819 13.8919 24.7393L14.2175 24.7776C14.6962 24.8351 15.1749 24.883 15.6631 24.9308L15.9216 24.95C16.3621 24.9883 16.8025 25.0266 17.2524 25.0649L17.5492 25.084C18.0375 25.1223 18.5258 25.151 19.0141 25.1798L19.1481 25.1893L19.3875 25.1989C19.8087 25.2181 20.23 25.2372 20.6512 25.2563C20.747 25.2563 20.8331 25.2659 20.9289 25.2659H20.9959C21.5033 25.2851 22.0012 25.2946 22.5086 25.3042L22.7096 25.3138H22.9203C23.4468 25.3234 23.9734 25.3329 24.5 25.3329C25.0266 25.3329 25.5627 25.3234 26.0893 25.3138H26.2999L26.501 25.3042C27.0084 25.2946 27.5062 25.2755 28.0137 25.2659H28.0807C28.1764 25.2659 28.2722 25.2563 28.3583 25.2563C28.7796 25.2372 29.2009 25.2181 29.6221 25.1989L29.8615 25.1893L29.9955 25.1798C30.4838 25.151 30.9721 25.1223 31.4603 25.084L31.7571 25.0649C32.2071 25.0266 32.6475 24.9883 33.0879 24.95L33.3464 24.9308C33.8347 24.883 34.323 24.8351 34.7921 24.7776L35.1176 24.7393C35.5676 24.6819 36.0176 24.6245 36.458 24.567L36.5633 24.5575C37.0324 24.4904 37.4824 24.4234 37.9324 24.3468L38.2483 24.2989C38.6887 24.2224 39.1291 24.1458 39.56 24.0596L39.6844 24.0309C40.077 23.9543 40.4599 23.8681 40.8333 23.7819L41.111 23.7149C41.5035 23.6192 41.8865 23.5234 42.2599 23.4277L42.4609 23.3703C42.7864 23.2841 43.1024 23.1884 43.4183 23.0926C43.4853 23.0735 43.5619 23.0543 43.6289 23.0256C43.9736 22.9203 44.2991 22.8054 44.6055 22.6809C44.6725 22.6522 44.7395 22.6331 44.8066 22.6043C45.0938 22.499 45.3619 22.3841 45.6204 22.2693C45.6586 22.2501 45.6969 22.2405 45.7352 22.2214C46.0129 22.0969 46.2714 21.9629 46.5203 21.8288C46.5778 21.8001 46.6352 21.7618 46.6926 21.7331C46.9416 21.5991 47.1713 21.4555 47.3724 21.3023V39.6366H47.4011Z" fill="#666979"/>
<mask id="mask0" mask-type="alpha" maskUnits="userSpaceOnUse" x="0" y="0" width="50" height="49">
<path d="M40.0578 13.643V4.09769C40.0578 4.00195 40.0387 3.90622 40.0004 3.82005C39.9908 3.8009 39.9812 3.78175 39.9717 3.75303C39.9334 3.66686 39.8855 3.59027 39.8185 3.52325C39.8089 3.51368 39.7993 3.50411 39.7898 3.50411C39.7515 3.46581 39.7132 3.42751 39.6653 3.39879C39.6366 3.38921 39.6174 3.37007 39.5887 3.3605L39.5313 3.33177C39.4451 3.29347 39.3493 3.27433 39.2536 3.27433H39.244C39.2345 3.27433 39.2249 3.2839 39.2153 3.2839C39.1291 3.2839 39.043 3.30305 38.9664 3.33177C38.9472 3.34134 38.9281 3.34134 38.9089 3.35092C38.8898 3.36049 38.8898 3.3605 38.8802 3.3605L33.5187 6.04123C33.0209 6.29016 32.705 6.79758 32.705 7.35287C32.705 7.90817 33.0209 8.41559 33.5187 8.66452L38.4302 11.1251V13.3271C34.1028 12.6282 29.7274 12.2739 25.3425 12.2644V0.823372C25.3425 0.727632 25.3234 0.631889 25.2851 0.545722C25.2755 0.526574 25.2659 0.497851 25.2563 0.478703C25.2181 0.392536 25.1702 0.315947 25.1032 0.248929C25.0936 0.239355 25.084 0.22978 25.0744 0.22978C25.0361 0.191483 24.9978 0.153184 24.95 0.124462C24.9213 0.105313 24.9021 0.105317 24.8734 0.0861688C24.8447 0.0765948 24.8351 0.0670219 24.8064 0.0574478C24.7202 0.0191516 24.6245 0 24.5287 0H24.5191C24.5096 0 24.5 0.00957756 24.4904 0.00957756C24.4043 0.00957756 24.3181 0.0287257 24.2415 0.0574478C24.2223 0.0670219 24.2032 0.0670172 24.1841 0.0765913C24.1649 0.0861653 24.1649 0.0861688 24.1553 0.0861688L18.7843 2.7669C18.2864 3.01583 17.9705 3.52325 17.9705 4.07855C17.9705 4.63384 18.2864 5.14126 18.7843 5.39019L23.6958 7.85072V12.2548C19.5981 12.2739 15.51 12.5803 11.4506 13.1835V4.08812C11.4506 3.99238 11.4314 3.89664 11.3931 3.81047C11.3835 3.79132 11.374 3.77218 11.3644 3.74346C11.3261 3.65729 11.2782 3.5807 11.2112 3.51368C11.2016 3.5041 11.1921 3.49453 11.1825 3.49453C11.1442 3.45623 11.1059 3.41794 11.058 3.38922C11.0293 3.37964 11.0006 3.36049 10.9719 3.35092L10.9144 3.3222C10.8283 3.2839 10.7325 3.26476 10.6368 3.26476H10.6272C10.6176 3.26476 10.608 3.27433 10.5985 3.27433C10.5123 3.27433 10.4261 3.29348 10.3495 3.3222C10.3304 3.33177 10.3113 3.33177 10.2921 3.34135C10.273 3.35092 10.273 3.35092 10.2634 3.35092L4.90191 6.03165C4.40406 6.28058 4.08812 6.788 4.08812 7.3433C4.08812 7.89859 4.40406 8.40602 4.90191 8.65495L9.8134 11.1155V13.4515C4.04982 14.5238 0 16.3142 0 18.7747V39.6079C0.0478703 40.9195 0.622311 42.1546 1.58929 43.0354C5.13169 46.6544 14.1313 49 24.5096 49C34.8878 49 43.897 46.6544 47.4298 43.0354C48.3968 42.145 48.9713 40.9099 49.0191 39.6079V18.8034C49.0383 16.4578 45.3714 14.7345 40.0578 13.643ZM34.5336 7.36245L38.4302 5.41892V9.30598L34.5336 7.36245ZM5.93591 7.36245L9.83255 5.41892V9.30598L5.93591 7.36245ZM19.8183 4.09769L23.7149 2.15416V6.0508L19.8183 4.09769ZM24.5287 13.9015C38.6983 13.9015 47.4011 16.7642 47.4011 18.8034C47.4011 20.0576 44.1555 21.5991 38.4015 22.6235L35.491 18.2673C35.0314 17.5875 34.2751 17.1759 33.4517 17.1759H15.5961C14.7728 17.1759 14.0068 17.5875 13.5569 18.2673L10.6463 22.6235C4.90191 21.6086 1.64673 20.0576 1.64673 18.8034C1.65631 16.7546 10.3591 13.9015 24.5287 13.9015ZM22.9969 23.6862H22.7767C19.3204 23.6383 15.8642 23.3703 12.4367 22.8916L14.9259 19.1673C15.0791 18.9375 15.3281 18.8034 15.6057 18.8034H33.4613C33.739 18.8034 33.9879 18.9375 34.1411 19.1673L36.6207 22.8916C33.1932 23.3703 29.737 23.6383 26.2808 23.6862H26.0606C25.5531 23.6958 25.0457 23.7054 24.5287 23.7054C24.0117 23.7054 23.5043 23.6958 22.9969 23.6862ZM5.73485 43.9353V31.0487C5.73485 29.6987 6.83587 28.5977 8.18581 28.5977C9.53576 28.5977 10.6368 29.6987 10.6368 31.0487V45.7257C8.95174 45.2948 7.305 44.7012 5.73485 43.9353ZM27.7935 47.315H27.7552C25.601 47.4299 23.4469 47.4299 21.3023 47.315H21.264V33.5092C21.264 31.6997 22.7288 30.2444 24.5287 30.2444C26.3286 30.2444 27.7935 31.7093 27.7935 33.5092V47.315ZM38.4207 45.7353V31.0582C38.4207 29.7083 39.5217 28.6073 40.8716 28.6073C42.2216 28.6073 43.3226 29.7083 43.3226 31.0582V43.9449C41.7524 44.7013 40.1057 45.2948 38.4207 45.7353ZM47.4011 39.6366C47.3437 40.5174 46.9416 41.3408 46.281 41.9248C45.8788 42.3269 45.4289 42.6907 44.9502 43.0162V31.0582C44.9502 28.7987 43.1215 26.9701 40.862 26.9701C38.6026 26.9701 36.7739 28.7987 36.7739 31.0582V45.764C36.7739 45.8884 36.7931 46.0129 36.8027 46.1374C34.3708 46.6639 31.9007 47.0278 29.4211 47.2097V33.5092C29.4211 30.7997 27.2286 28.6073 24.5191 28.6073C21.8097 28.6073 19.6172 30.7997 19.6172 33.5092V47.2097C17.1375 47.0278 14.6674 46.6735 12.2356 46.1374C12.2548 46.0129 12.2644 45.8884 12.2644 45.764V31.0582C12.2644 28.7987 10.4357 26.9701 8.17624 26.9701C5.91676 26.9701 4.08812 28.7987 4.08812 31.0582V43.0066C3.60941 42.6907 3.16901 42.3269 2.75733 41.9152C2.09672 41.3312 1.6946 40.5078 1.63716 39.627V21.3118C1.84779 21.4555 2.07756 21.5991 2.31692 21.7427C2.37436 21.7714 2.43181 21.8097 2.48925 21.8384C2.73818 21.9725 2.99667 22.1065 3.27432 22.231C3.31262 22.2501 3.35091 22.2597 3.38921 22.2788C3.64771 22.3937 3.91578 22.5086 4.203 22.6139C4.27002 22.6426 4.33705 22.6618 4.40406 22.6905C4.72001 22.8054 5.04552 22.9203 5.38061 23.0256C5.44763 23.0448 5.52422 23.0639 5.59124 23.0926C5.89761 23.1884 6.22313 23.2841 6.54865 23.3703L6.74971 23.4277C7.12309 23.5234 7.50606 23.6192 7.89859 23.7149L8.17624 23.7819C8.54962 23.8681 8.93259 23.9447 9.32512 24.0309L9.44958 24.0596C9.87084 24.1458 10.3112 24.2224 10.7612 24.2989L11.0772 24.3468C11.5272 24.4234 11.9771 24.4904 12.4463 24.5575L12.5516 24.567C12.992 24.6245 13.442 24.6819 13.8919 24.7393L14.2175 24.7776C14.6962 24.8351 15.1749 24.883 15.6631 24.9308L15.9216 24.95C16.3621 24.9883 16.8025 25.0266 17.2524 25.0649L17.5492 25.084C18.0375 25.1223 18.5258 25.151 19.0141 25.1798L19.1481 25.1893L19.3875 25.1989C19.8087 25.2181 20.23 25.2372 20.6512 25.2563C20.747 25.2563 20.8331 25.2659 20.9289 25.2659H20.9959C21.5033 25.2851 22.0012 25.2946 22.5086 25.3042L22.7096 25.3138H22.9203C23.4468 25.3234 23.9734 25.3329 24.5 25.3329C25.0266 25.3329 25.5627 25.3234 26.0893 25.3138H26.2999L26.501 25.3042C27.0084 25.2946 27.5062 25.2755 28.0137 25.2659H28.0807C28.1764 25.2659 28.2722 25.2563 28.3583 25.2563C28.7796 25.2372 29.2009 25.2181 29.6221 25.1989L29.8615 25.1893L29.9955 25.1798C30.4838 25.151 30.9721 25.1223 31.4603 25.084L31.7571 25.0649C32.2071 25.0266 32.6475 24.9883 33.0879 24.95L33.3464 24.9308C33.8347 24.883 34.323 24.8351 34.7921 24.7776L35.1176 24.7393C35.5676 24.6819 36.0176 24.6245 36.458 24.567L36.5633 24.5575C37.0324 24.4904 37.4824 24.4234 37.9324 24.3468L38.2483 24.2989C38.6887 24.2224 39.1291 24.1458 39.56 24.0596L39.6844 24.0309C40.077 23.9543 40.4599 23.8681 40.8333 23.7819L41.111 23.7149C41.5035 23.6192 41.8865 23.5234 42.2599 23.4277L42.4609 23.3703C42.7864 23.2841 43.1024 23.1884 43.4183 23.0926C43.4853 23.0735 43.5619 23.0543 43.6289 23.0256C43.9736 22.9203 44.2991 22.8054 44.6055 22.6809C44.6725 22.6522 44.7395 22.6331 44.8066 22.6043C45.0938 22.499 45.3619 22.3841 45.6204 22.2693C45.6586 22.2501 45.6969 22.2405 45.7352 22.2214C46.0129 22.0969 46.2714 21.9629 46.5203 21.8288C46.5778 21.8001 46.6352 21.7618 46.6926 21.7331C46.9416 21.5991 47.1713 21.4555 47.3724 21.3023V39.6366H47.4011Z" fill="#666979"/>
</mask>
<g mask="url(#mask0)">
<path d="M32.6802 8.54661L32.0334 4.71222L37.0074 1.41681L42.1353 0.539062V12.9816L33.2192 8.54661H32.6802Z" fill="#F9DD47"/>
<path d="M17.0192 4.80442L16.3724 0.970037L21.3464 -2.32538L26.4743 -3.20312V9.23936L17.5582 4.80442H17.0192Z" fill="#F9DD47"/>
<path d="M3.00602 8.00754L2.35925 4.17316L7.33317 0.87775L12.4611 0V12.4425L3.54499 8.00754H3.00602Z" fill="#F9DD47"/>
</g>
</svg>
