<svg width="51" height="55" viewBox="0 0 51 55" fill="none" xmlns="http://www.w3.org/2000/svg">
<path d="M23.8322 54.9889H27.4943C27.9994 54.9889 28.4127 54.5756 28.4127 54.0705V41.2359H32.0748C32.5799 41.2359 32.9932 40.8226 32.9932 40.3175V16.4852H35.6566C36.3683 16.4852 37.0112 16.0834 37.3097 15.4405C37.6196 14.7976 37.5278 14.04 37.0801 13.5004L26.3808 0.321437C26.1971 0.114798 25.9445 0 25.669 0C25.3935 0 25.1409 0.114798 24.9573 0.321437L14.258 13.5004C13.8103 14.0514 13.7184 14.8091 14.0284 15.4405C14.3269 16.0834 14.9812 16.4852 15.6815 16.4852H18.3448V40.3175C18.3448 40.8226 18.7581 41.2359 19.2632 41.2359H22.9253V54.0705C22.9138 54.5756 23.3271 54.9889 23.8322 54.9889ZM26.5874 53.1636H24.7506V41.2359H26.5874V53.1636ZM31.1679 29.3197H20.1701V23.8209H31.1679V29.3197ZM20.1701 31.1565H31.1679V35.737H20.1701V31.1565ZM30.1003 7.81783C29.0671 9.22986 27.414 10.0679 25.669 10.0679C23.9241 10.0679 22.271 9.22986 21.2378 7.81783L25.669 2.36487L30.1003 7.81783ZM15.67 14.6484L20.0553 9.25282C21.4329 10.9289 23.4993 11.8932 25.669 11.8932C27.8387 11.8932 29.8936 10.9289 31.2827 9.25282L35.668 14.6484H15.67ZM31.1679 16.4852V21.9841H20.1701V16.4852H31.1679ZM20.1701 37.5738H31.1679V39.4106H20.1701V37.5738Z" fill="#666979"/>
<path d="M8.25397 51.3272C8.75908 51.3272 9.17236 50.9139 9.17236 50.4088C9.17236 46.3564 12.4556 43.0846 16.508 43.0731C17.0132 43.0731 17.4264 42.6598 17.4264 42.1547C17.4264 41.6496 17.0132 41.2363 16.508 41.2363C11.4454 41.2478 7.34705 45.3461 7.33557 50.4088C7.33557 50.9139 7.74885 51.3272 8.25397 51.3272Z" fill="#F9DD47"/>
<path d="M8.25415 33.8998C8.25415 33.3947 7.84087 32.9814 7.33575 32.9814C6.83064 32.9814 6.41736 33.3947 6.41736 33.8998C6.41736 37.4357 10.1139 40.3171 14.6714 40.3171C15.1765 40.3171 15.5898 39.9038 15.5898 39.3987C15.5898 38.8936 15.1765 38.4803 14.6714 38.4803C11.1241 38.4918 8.25415 36.4369 8.25415 33.8998Z" fill="#F9DD47"/>
<path d="M19.5963 46.6779C20.0669 46.4827 20.2965 45.9546 20.1014 45.484C19.9177 45.0133 19.3781 44.7837 18.9075 44.9788C17.5069 45.5758 16.4048 46.7008 15.8423 48.1014C15.3946 49.6856 15.6816 51.3732 16.623 52.7163C16.887 53.1411 17.438 53.2674 17.8743 53.0148C18.299 52.7622 18.4483 52.1997 18.1957 51.775C17.5414 50.891 17.3232 49.766 17.5758 48.6983C17.9661 47.7914 18.6894 47.0682 19.5963 46.6779Z" fill="#F9DD47"/>
<path d="M44.921 51.3272C45.4261 51.3272 45.8394 50.9139 45.8394 50.4088C45.8279 45.3461 41.7296 41.2478 36.6669 41.2363C36.1618 41.2363 35.7485 41.6496 35.7485 42.1547C35.7485 42.6598 36.1618 43.0731 36.6669 43.0731C40.7193 43.0731 43.9911 46.3564 44.0026 50.4088C44.0026 50.9139 44.4159 51.3272 44.921 51.3272Z" fill="#F9DD47"/>
<path d="M45.8394 32.9932C45.3343 32.9932 44.921 33.4064 44.921 33.9116C44.921 36.4371 42.0395 38.492 38.5037 38.492C37.9986 38.492 37.5853 38.9053 37.5853 39.4104C37.5853 39.9156 37.9986 40.3288 38.5037 40.3288C43.0498 40.3288 46.7578 37.4474 46.7578 33.9116C46.7578 33.395 46.3445 32.9932 45.8394 32.9932Z" fill="#F9DD47"/>
<path d="M35.2778 53.0254C35.7141 53.2894 36.2766 53.1517 36.5406 52.7154C37.482 51.3723 37.769 49.6733 37.3213 48.1005C36.7587 46.6885 35.6567 45.5634 34.2561 44.978C33.7854 44.7943 33.2574 45.0124 33.0622 45.4831C32.8785 45.9538 33.0966 46.4818 33.5673 46.677C34.4742 47.0673 35.1975 47.7906 35.5878 48.6975C35.8403 49.7651 35.6222 50.8901 34.9679 51.7741C34.8416 51.9807 34.8071 52.2333 34.8645 52.4744C34.9219 52.6925 35.0712 52.8991 35.2778 53.0254Z" fill="#F9DD47"/>
<path d="M48.124 43.9914C49.3868 43.9914 50.42 42.9697 50.42 41.6954C50.42 40.4326 49.3983 39.3994 48.124 39.3994C46.8612 39.3994 45.828 40.4211 45.828 41.6954C45.8395 42.9697 46.8612 43.9914 48.124 43.9914ZM48.124 41.2362C48.3765 41.2362 48.5832 41.4428 48.5832 41.6954C48.5832 41.948 48.3765 42.1546 48.124 42.1546C47.8714 42.1546 47.6648 41.948 47.6648 41.6954C47.6763 41.4428 47.8714 41.2362 48.124 41.2362Z" fill="#C8CCDF"/>
<path d="M36.6667 31.6153C36.6667 32.8781 37.6885 33.9113 38.9627 33.9113C40.2255 33.9113 41.2587 32.8896 41.2587 31.6153C41.2587 30.3525 40.237 29.3193 38.9627 29.3193C37.6999 29.3193 36.6667 30.3525 36.6667 31.6153ZM39.4219 31.6153C39.4219 31.8679 39.2153 32.0745 38.9627 32.0745C38.7102 32.0745 38.5035 31.8679 38.5035 31.6153C38.5035 31.3628 38.7102 31.1561 38.9627 31.1561C39.2153 31.1561 39.4219 31.3628 39.4219 31.6153Z" fill="#C8CCDF"/>
<path d="M38.5037 52.7042C38.5037 53.967 39.5254 55.0002 40.7996 55.0002C42.0624 55.0002 43.0956 53.9785 43.0956 52.7042C43.0956 51.4414 42.0739 50.4082 40.7996 50.4082C39.5254 50.4082 38.5037 51.4299 38.5037 52.7042ZM41.2588 52.7042C41.2588 52.9567 41.0522 53.1634 40.7996 53.1634C40.5471 53.1634 40.3405 52.9567 40.3405 52.7042C40.3405 52.4516 40.5471 52.245 40.7996 52.245C41.0522 52.245 41.2588 52.4516 41.2588 52.7042Z" fill="#C8CCDF"/>
<path d="M5.49896 39.8702C5.49896 38.6074 4.47724 37.5742 3.20297 37.5742C1.94018 37.5742 0.906982 38.5959 0.906982 39.8702C0.906982 41.133 1.9287 42.1662 3.20297 42.1662C4.47724 42.1547 5.49896 41.133 5.49896 39.8702ZM3.20297 40.3294C2.95041 40.3294 2.74377 40.1228 2.74377 39.8702C2.74377 39.6176 2.95041 39.411 3.20297 39.411C3.45553 39.411 3.66217 39.6176 3.66217 39.8702C3.66217 40.1228 3.45553 40.3294 3.20297 40.3294Z" fill="#C8CCDF"/>
<path d="M0 51.7862C0 53.049 1.02171 54.0822 2.29599 54.0822C3.55878 54.0822 4.59197 53.0605 4.59197 51.7862C4.59197 50.5234 3.57026 49.4902 2.29599 49.4902C1.02171 49.4902 0 50.5119 0 51.7862ZM2.7437 51.7862C2.7437 52.0388 2.53707 52.2454 2.28451 52.2454C2.03195 52.2454 1.82531 52.0388 1.82531 51.7862C1.82531 51.5337 2.03195 51.327 2.28451 51.327C2.54855 51.327 2.7437 51.5337 2.7437 51.7862Z" fill="#C8CCDF"/>
</svg>
