<svg width="51" height="51" viewBox="0 0 51 51" fill="none" xmlns="http://www.w3.org/2000/svg">
<path d="M9.34989 35.7002H5.94991C5.48507 35.7002 5.09991 36.0853 5.09991 36.5502V41.6502C5.09991 42.115 5.48507 42.5002 5.94991 42.5002H9.34989C9.81473 42.5002 10.1999 42.115 10.1999 41.6502V36.5502C10.1999 36.0721 9.81473 35.7002 9.34989 35.7002ZM8.49989 40.8002H6.7999V37.4002H8.49989V40.8002Z" fill="#C8CCDF"/>
<path d="M18.6999 31.45V28.05C18.6999 26.6422 17.5578 25.5 16.15 25.5C14.7422 25.5 13.6 26.6422 13.6 28.05V31.45C13.6 31.9148 13.9851 32.3 14.45 32.3H17.8499C18.3148 32.3 18.6999 31.9148 18.6999 31.45ZM17 30.6H15.3V28.05C15.3 27.5851 15.6851 27.2 16.15 27.2C16.6148 27.2 17 27.5851 17 28.05V30.6Z" fill="#C8CCDF"/>
<path d="M33.1499 35.7002H17.85C17.3852 35.7002 17 36.0853 17 36.5502C17 37.015 17.3852 37.4002 17.85 37.4002H18.7V45.0501C18.7 45.515 19.0851 45.9001 19.55 45.9001C20.0148 45.9001 20.4 45.515 20.4 45.0501V37.4002H24.65V40.8002C24.1851 40.8002 23.8 41.1853 23.8 41.6502C23.8 42.115 24.1851 42.5002 24.65 42.5002V45.0501C24.65 45.515 25.0351 45.9001 25.5 45.9001C25.9648 45.9001 26.3499 45.515 26.3499 45.0501V42.5002C26.8148 42.5002 27.1999 42.115 27.1999 41.6502C27.1999 41.1853 26.8148 40.8002 26.3499 40.8002V37.4002H30.5999V45.0501C30.5999 45.515 30.9851 45.9001 31.4499 45.9001C31.9148 45.9001 32.2999 45.515 32.2999 45.0501V37.4002H33.1499C33.6147 37.4002 33.9999 37.015 33.9999 36.5502C33.9999 36.0721 33.6147 35.7002 33.1499 35.7002Z" fill="#C8CCDF"/>
<path d="M16.1499 18.6999C16.6148 18.6999 16.9999 18.3147 16.9999 17.8499C16.9999 14.2241 19.4038 11.4085 22.9764 10.5054C21.7413 11.9796 20.3999 14.3835 20.3999 17.8499C20.3999 18.3147 20.7851 18.6999 21.2499 18.6999C21.7147 18.6999 22.0999 18.3147 22.0999 17.8499C22.0999 13.5335 24.4905 11.196 25.4999 10.3992C26.5092 11.196 28.8998 13.5468 28.8998 17.8499C28.8998 18.3147 29.285 18.6999 29.7498 18.6999C30.2147 18.6999 30.5998 18.3147 30.5998 17.8499C30.5998 14.3835 29.2717 11.9929 28.0233 10.5054C31.5959 11.4085 33.9998 14.2241 33.9998 17.8499C33.9998 18.3147 34.385 18.6999 34.8498 18.6999C35.3147 18.6999 35.6998 18.3147 35.6998 17.8499C35.6998 12.7898 31.742 8.91167 26.3499 8.53979V1.69999H31.4498V3.39998H28.8998C28.435 3.39998 28.0499 3.78513 28.0499 4.24997C28.0499 4.71482 28.435 5.09997 28.8998 5.09997H32.2998C32.7647 5.09997 33.1498 4.71482 33.1498 4.24997V0.849994C33.1498 0.385153 32.7647 0 32.2998 0H25.4999C25.035 0 24.6499 0.385153 24.6499 0.849994V8.53979C19.2577 8.91167 15.2999 12.7898 15.2999 17.8499C15.2999 18.3147 15.6851 18.6999 16.1499 18.6999Z" fill="#F9DD47"/>
<path d="M33.1499 47.5996H17.85C17.3852 47.5996 17 47.9848 17 48.4496V50.1496C17 50.6144 17.3852 50.9996 17.85 50.9996C18.3148 50.9996 18.7 50.6144 18.7 50.1496V49.2996H32.2999V50.1496C32.2999 50.6144 32.6851 50.9996 33.1499 50.9996C33.6147 50.9996 33.9999 50.6144 33.9999 50.1496V48.4496C33.9999 47.9715 33.6147 47.5996 33.1499 47.5996Z" fill="#666979"/>
<path d="M36.5498 32.3C37.0146 32.3 37.3998 31.9148 37.3998 31.45V28.05C37.3998 26.6422 36.2576 25.5 34.8498 25.5C33.442 25.5 32.2998 26.6422 32.2998 28.05V31.45C32.2998 31.9148 32.685 32.3 33.1498 32.3H36.5498ZM33.9998 28.05C33.9998 27.5851 34.3849 27.2 34.8498 27.2C35.3146 27.2 35.6998 27.5851 35.6998 28.05V30.6H33.9998V28.05Z" fill="#C8CCDF"/>
<path d="M41.6498 32.3H45.0498C45.5146 32.3 45.8998 31.9148 45.8998 31.45V28.05C45.8998 26.6422 44.7576 25.5 43.3498 25.5C41.942 25.5 40.7998 26.6422 40.7998 28.05V31.45C40.7998 31.9148 41.185 32.3 41.6498 32.3ZM42.4998 28.05C42.4998 27.5851 42.8849 27.2 43.3498 27.2C43.8146 27.2 44.1998 27.5851 44.1998 28.05V30.6H42.4998V28.05Z" fill="#C8CCDF"/>
<path d="M50.1497 18.7002C49.6849 18.7002 49.2997 19.0853 49.2997 19.5502V20.4002H1.69999V19.5502C1.69999 19.0853 1.31484 18.7002 0.849995 18.7002C0.385154 18.7002 0 19.0853 0 19.5502V50.15C0 50.6148 0.385154 51 0.849995 51H14.4499C14.9148 51 15.2999 50.6148 15.2999 50.15V46.75C15.2999 45.8071 14.5429 45.05 13.5999 45.05C13.2945 45.05 13.0023 45.1297 12.7499 45.2758C12.2452 44.9836 11.5546 44.9836 11.0499 45.2758C10.5453 44.9836 9.85463 44.9836 9.34995 45.2758C8.84526 44.9836 8.15464 44.9836 7.64996 45.2758C7.14527 44.9836 6.45465 44.9836 5.94997 45.2758C5.44528 44.9836 4.75466 44.9836 4.24998 45.2758C3.74529 44.9836 3.05467 44.9836 2.54999 45.2758C2.29764 45.1297 2.00546 45.05 1.69999 45.05V22.1002H49.2997V45.05C48.9942 45.05 48.7021 45.1297 48.4497 45.2758C47.945 44.9836 47.2544 44.9836 46.7497 45.2758C46.245 44.9836 45.5544 44.9836 45.0497 45.2758C44.5451 44.9836 43.8544 44.9836 43.3497 45.2758C42.8451 44.9836 42.1544 44.9836 41.6498 45.2758C41.1451 44.9836 40.4544 44.9836 39.9498 45.2758C39.4451 44.9836 38.7545 44.9836 38.2498 45.2758C37.9974 45.1297 37.7052 45.05 37.3998 45.05C36.4568 45.05 35.6998 45.8071 35.6998 46.75V50.15C35.6998 50.6148 36.0849 51 36.5498 51H50.1497C50.6145 51 50.9997 50.6148 50.9997 50.15V19.5502C50.9997 19.0721 50.6145 18.7002 50.1497 18.7002ZM2.54999 47.6C3.01483 47.6 3.39998 47.2149 3.39998 46.75C3.39998 47.2149 3.78513 47.6 4.24998 47.6C4.71482 47.6 5.09997 47.2149 5.09997 46.75C5.09997 47.2149 5.48512 47.6 5.94997 47.6C6.41481 47.6 6.79996 47.2149 6.79996 46.75C6.79996 47.2149 7.18511 47.6 7.64996 47.6C8.1148 47.6 8.49995 47.2149 8.49995 46.75C8.49995 47.2149 8.8851 47.6 9.34995 47.6C9.81479 47.6 10.1999 47.2149 10.1999 46.75C10.1999 47.2149 10.5851 47.6 11.0499 47.6C11.5148 47.6 11.8999 47.2149 11.8999 46.75C11.8999 47.2149 12.2851 47.6 12.7499 47.6C13.2148 47.6 13.5999 47.2149 13.5999 46.75V49.3H1.69999V46.75C1.69999 47.2149 2.08514 47.6 2.54999 47.6ZM49.2997 49.3H37.3998V46.75C37.3998 47.2149 37.7849 47.6 38.2498 47.6C38.7146 47.6 39.0998 47.2149 39.0998 46.75C39.0998 47.2149 39.4849 47.6 39.9498 47.6C40.4146 47.6 40.7998 47.2149 40.7998 46.75C40.7998 47.2149 41.1849 47.6 41.6498 47.6C42.1146 47.6 42.4998 47.2149 42.4998 46.75C42.4998 47.2149 42.8849 47.6 43.3497 47.6C43.8146 47.6 44.1997 47.2149 44.1997 46.75C44.1997 47.2149 44.5849 47.6 45.0497 47.6C45.5146 47.6 45.8997 47.2149 45.8997 46.75C45.8997 47.2149 46.2849 47.6 46.7497 47.6C47.2146 47.6 47.5997 47.2149 47.5997 46.75C47.5997 47.2149 47.9849 47.6 48.4497 47.6C48.9146 47.6 49.2997 47.2149 49.2997 46.75V49.3Z" fill="#666979"/>
<path d="M40.7998 41.6502C40.7998 42.115 41.185 42.5002 41.6498 42.5002H45.0498C45.5146 42.5002 45.8998 42.115 45.8998 41.6502V36.5502C45.8998 36.0853 45.5146 35.7002 45.0498 35.7002H41.6498C41.185 35.7002 40.7998 36.0853 40.7998 36.5502V41.6502ZM42.4998 37.4002H44.1998V40.8002H42.4998V37.4002Z" fill="#C8CCDF"/>
<path d="M27.1999 32.3C27.6648 32.3 28.0499 31.9148 28.0499 31.45V28.05C28.0499 26.6422 26.9077 25.5 25.4999 25.5C24.0921 25.5 22.95 26.6422 22.95 28.05V31.45C22.95 31.9148 23.3351 32.3 23.7999 32.3H27.1999ZM24.6499 28.05C24.6499 27.5851 25.0351 27.2 25.4999 27.2C25.9648 27.2 26.3499 27.5851 26.3499 28.05V30.6H24.6499V28.05Z" fill="#C8CCDF"/>
<path d="M10.1999 28.05C10.1999 26.6422 9.0577 25.5 7.6499 25.5C6.24209 25.5 5.09991 26.6422 5.09991 28.05V31.45C5.09991 31.9148 5.48507 32.3 5.94991 32.3H9.34989C9.81473 32.3 10.1999 31.9148 10.1999 31.45V28.05ZM8.49989 30.6H6.7999V28.05C6.7999 27.5851 7.18506 27.2 7.6499 27.2C8.11474 27.2 8.49989 27.5851 8.49989 28.05V30.6Z" fill="#C8CCDF"/>
</svg>
