<svg width="57" height="42" viewBox="0 0 57 42" fill="none" xmlns="http://www.w3.org/2000/svg">
<path d="M21.9959 40C21.4515 40 21 40.4515 21 40.9959C21 41.5403 21.4515 41.9918 21.9959 41.9918C22.5403 41.9918 22.9918 41.5403 22.9918 40.9959C22.9918 40.4515 22.5403 40 21.9959 40Z" fill="#C8CCDF"/>
<path d="M33.9959 40C33.4515 40 33 40.4515 33 40.9959C33 41.5403 33.4515 41.9918 33.9959 41.9918C34.5403 41.9918 34.9918 41.5403 34.9918 40.9959C34.9918 40.4515 34.5403 40 33.9959 40Z" fill="#C8CCDF"/>
<path d="M36.1857 21.0804C36.0835 20.7593 35.7915 20.5111 35.4557 20.4673L30.8863 19.8104L28.8425 15.6789C28.6965 15.3724 28.3754 15.168 28.025 15.168C27.6746 15.168 27.368 15.3578 27.2075 15.6789L25.1636 19.8104L20.5942 20.4673C20.2585 20.5111 19.9665 20.7593 19.8643 21.0804C19.7621 21.4016 19.8497 21.7666 20.0979 22.0148L23.3972 25.2411L22.6235 29.7813C22.5651 30.1171 22.7111 30.4674 22.9884 30.6718C23.2658 30.8762 23.6308 30.9054 23.9374 30.7448L28.025 28.5988L32.1126 30.7448C32.244 30.8178 32.39 30.847 32.536 30.847C32.7258 30.847 32.9156 30.7886 33.0616 30.6718C33.3389 30.4674 33.4849 30.1317 33.4265 29.7813L32.6528 25.2411L35.9521 22.0148C36.2149 21.7666 36.3025 21.4162 36.1857 21.0804ZM31.0615 24.263C30.8425 24.4674 30.755 24.7739 30.7988 25.0659L31.3535 28.2776L28.4776 26.7594C28.2148 26.6134 27.8936 26.6134 27.6308 26.7594L24.7549 28.2776L25.3096 25.0659C25.3534 24.7739 25.2658 24.4674 25.0469 24.263L22.7111 21.9856L25.9374 21.5184C26.2293 21.4746 26.4921 21.2848 26.6235 21.0221L28.0688 18.1023L29.5141 21.0221C29.6454 21.2848 29.8936 21.4746 30.2002 21.5184L33.4265 21.9856L31.0615 24.263Z" fill="#F9DD47"/>
<path d="M12.8422 15.8392C16.5357 15.8392 19.9956 13.5326 21.2949 9.86837C21.4555 9.40121 21.2073 8.87566 20.7401 8.71507C18.4919 7.92674 16.0831 8.04353 13.9225 9.06544C14.4627 8.3501 15.0612 7.66396 15.7182 7.00702C16.0685 6.65665 16.0685 6.0873 15.7182 5.72234C15.3678 5.37197 14.7985 5.37197 14.4335 5.72234C13.9663 6.1895 13.5284 6.67125 13.105 7.1676C13.0028 4.48144 11.7035 1.86827 9.35314 0.189419C8.94438 -0.102556 8.37502 -0.000364527 8.09764 0.4084C6.71077 2.36463 6.17061 4.72962 6.56478 7.09461C6.92975 9.28442 8.06845 11.2115 9.7765 12.5837C9.48452 13.2699 9.22175 13.9706 8.98817 14.6859C8.81299 14.2918 8.6086 13.8976 8.36042 13.5327C7.07573 11.518 5.09031 10.1166 2.75452 9.591C2.52094 9.5326 2.27276 9.5764 2.06838 9.70778C1.86399 9.83917 1.71801 10.0435 1.67421 10.2771C0.6377 14.9341 3.42606 19.5619 7.96626 20.8466C7.93706 21.8101 7.98086 22.759 8.08305 23.7226C7.87867 23.5328 7.65969 23.3576 7.42611 23.1824C5.49908 21.7663 3.13408 21.1824 0.769087 21.5473C0.27273 21.6203 -0.0630332 22.0875 0.00996034 22.5839C0.374928 24.9488 1.63042 27.0365 3.55745 28.4525C5.11951 29.5912 6.94435 30.1898 8.84219 30.1898C9.14876 30.1898 9.45533 30.1752 9.7619 30.146C10.1269 31.0073 10.5648 31.854 11.0466 32.657C8.24363 31.7519 5.06111 32.2482 2.62313 34.2482C2.24356 34.5694 2.18517 35.1388 2.49174 35.5183C4.01001 37.3724 6.15602 38.5257 8.53561 38.7592C8.84218 38.7884 9.13416 38.803 9.44073 38.803C11.2948 38.803 13.0758 38.2337 14.5795 37.168C15.6014 38.1607 16.7109 39.0658 17.8934 39.8541C18.054 39.9563 18.2146 40.0001 18.3897 40.0001C18.6817 40.0001 18.9737 39.8541 19.1489 39.5914C19.4263 39.168 19.3095 38.6132 18.8861 38.3359C17.7474 37.5767 16.6817 36.7008 15.7036 35.7373C13.5284 33.5621 11.9371 30.9927 10.959 28.2774C15.251 26.6277 17.6452 21.8977 16.3313 17.4013C16.1853 16.9196 15.689 16.6422 15.2072 16.7882C12.9152 17.4597 11.0174 18.9926 9.8641 21.0802C9.8349 21.1532 9.7911 21.2116 9.7619 21.2846C9.7765 19.3575 10.0539 17.4305 10.6086 15.5765C11.3678 15.7517 12.0977 15.8392 12.8422 15.8392ZM7.93706 18.9196C4.94432 17.8101 3.03189 14.8027 3.30927 11.6202C4.76914 12.1604 6.01003 13.1531 6.85675 14.4962C7.70348 15.8246 8.06845 17.3575 7.93706 18.9196ZM4.65235 26.9781C3.38226 26.0437 2.46254 24.7445 2.02458 23.2408C2.06838 23.2408 2.09757 23.2408 2.14137 23.2408C5.29469 23.2408 8.09765 25.3284 8.98817 28.3649C7.44071 28.3941 5.92244 27.9124 4.65235 26.9781ZM8.72539 36.949C7.14873 36.7884 5.70345 36.1315 4.56475 35.0804C7.29471 33.4015 10.8276 33.7665 13.1634 35.9417C11.8495 36.7446 10.302 37.1096 8.72539 36.949ZM11.4845 21.9415C12.2437 20.5546 13.4116 19.4743 14.8423 18.8466C15.324 22.0145 13.616 25.124 10.6962 26.4379C10.448 24.8904 10.7254 23.3284 11.4845 21.9415ZM14.6671 10.7005C16.0977 10.0144 17.6744 9.83917 19.1927 10.1457C17.7328 12.9925 14.5211 14.5254 11.3824 13.8684C12.1123 12.4961 13.251 11.3866 14.6671 10.7005ZM8.36042 6.78804C8.09764 5.22598 8.34582 3.66391 9.07576 2.27703C11.4116 4.46684 11.9955 7.97054 10.5064 10.8027C9.36773 9.73698 8.6232 8.33551 8.36042 6.78804Z" fill="#666979"/>
<path d="M47.2222 30.1752C49.12 30.1752 50.9595 29.5766 52.5069 28.4379C54.434 27.0219 55.6895 24.9342 56.0544 22.5692C56.1274 22.0729 55.7916 21.6203 55.2953 21.5327C52.5507 21.1094 49.9084 21.9999 47.9813 23.7079C48.0835 22.7444 48.1273 21.7809 48.0981 20.832C50.2149 20.2335 52.0252 18.8904 53.2077 17.0071C54.4924 14.9925 54.9011 12.5837 54.3902 10.2479C54.2734 9.76617 53.7916 9.4596 53.3099 9.56179C50.9741 10.0873 48.9886 11.4888 47.704 13.5034C47.4704 13.883 47.266 14.2626 47.0762 14.6567C46.8572 13.9414 46.5945 13.2407 46.2879 12.5545C49.9522 9.60559 50.7259 4.26245 47.9667 0.379192C47.8208 0.189408 47.6164 0.0580199 47.3828 0.0142237C47.1492 -0.0295724 46.901 0.0288278 46.7113 0.174815C44.755 1.56169 43.4703 3.62011 43.0762 5.9851C43.0178 6.37927 42.974 6.75884 42.9594 7.153C42.5506 6.65664 42.1126 6.17488 41.6455 5.70772C41.2951 5.35735 40.7258 5.35735 40.3608 5.70772C40.0104 6.05809 40.0104 6.62744 40.3608 6.99241C41.0178 7.64935 41.6163 8.3355 42.1564 9.05083C40.0104 8.02892 37.5871 7.91213 35.3388 8.70046C34.8717 8.86105 34.6235 9.38661 34.7841 9.85376C36.0834 13.5326 39.5433 15.8246 43.2368 15.8246C43.9667 15.8246 44.7112 15.737 45.4558 15.5473C46.0105 17.4159 46.2879 19.3429 46.3025 21.27C45.2222 19.1531 43.3097 17.4743 40.8572 16.759C40.3754 16.613 39.879 16.8903 39.7331 17.3721C39.0615 19.6641 39.3243 22.0875 40.4776 24.1897C41.4995 26.0729 43.1346 27.489 45.1054 28.2481C44.1273 30.9781 42.5506 33.5329 40.3608 35.7081C39.3827 36.6862 38.317 37.5621 37.1783 38.3067C36.7549 38.584 36.6527 39.1388 36.9155 39.5622C37.0907 39.8249 37.3827 39.9709 37.6746 39.9709C37.8498 39.9709 38.025 39.9271 38.171 39.8249C39.3535 39.0512 40.463 38.1461 41.4849 37.1388C43.0324 38.2337 44.8426 38.7738 46.6383 38.7738C49.2368 38.7738 51.8062 37.6497 53.5727 35.4891C53.7186 35.2993 53.7916 35.0657 53.777 34.8322C53.7478 34.5986 53.631 34.3796 53.4559 34.219C51.6018 32.7008 49.266 32 46.8864 32.2336C46.2441 32.292 45.6309 32.4234 45.0324 32.6132C45.5142 31.7956 45.9375 30.9635 46.3025 30.1022C46.6091 30.1606 46.9156 30.1752 47.2222 30.1752ZM52.7843 11.6056C52.9157 13.1531 52.5507 14.7005 51.6894 16.029C50.8427 17.3721 49.6018 18.3648 48.1419 18.905C47.8791 15.7224 49.777 12.7297 52.7843 11.6056ZM54.0544 23.2408C53.1493 26.3065 50.2879 28.4087 47.0908 28.3649C47.9959 25.2992 50.8573 23.1824 54.0544 23.2408ZM36.8863 10.1603C38.4046 9.83916 39.9812 10.0289 41.4119 10.7151C42.8426 11.4012 43.9813 12.5107 44.682 13.883C41.5579 14.5254 38.3462 12.9925 36.8863 10.1603ZM45.5725 10.8027C44.8426 9.4304 44.5944 7.85374 44.8572 6.29167C45.12 4.72961 45.8791 3.32814 47.0032 2.26243C48.5069 5.10918 47.9083 8.61287 45.5725 10.8027ZM47.0616 34.0584C48.6383 33.8979 50.1857 34.2628 51.5142 35.0803C49.1784 37.2556 45.631 37.6059 42.9156 35.9417C44.0543 34.8614 45.4995 34.2044 47.0616 34.0584ZM45.412 26.4233C43.9959 25.7956 42.8134 24.7153 42.0543 23.3284C41.2951 21.9415 41.0178 20.3794 41.2513 18.832C44.1711 20.1459 45.8791 23.27 45.412 26.4233Z" fill="#666979"/>
</svg>
