<svg width="54" height="62" viewBox="0 0 54 62" fill="none" xmlns="http://www.w3.org/2000/svg">
<path d="M53.4015 25.3282C52.7811 11.6796 41.49 0.512528 27.8414 0.0162148C20.5208 -0.231942 13.5724 2.3737 8.23701 7.46091C2.90165 12.5481 0.0478516 19.3724 0.0478516 26.693C0.0478516 31.408 1.28863 35.9989 3.64612 39.9694C6.74807 45.4288 16.4262 54.8588 21.8856 59.946C23.2505 61.3108 25.1116 61.9312 26.9728 61.9312C28.834 61.9312 30.5711 61.3108 31.9359 59.946C37.7676 54.6106 48.0661 44.3121 51.044 37.9841C52.9052 34.0136 53.6496 29.6709 53.4015 25.3282Z" fill="#171921"/>
<path d="M27.219 15.7754C22.1168 15.7754 17.915 19.978 17.915 25.0813C17.915 30.1845 22.1168 34.3871 27.219 34.3871C32.3211 34.3871 36.5229 30.1845 36.5229 25.0813C36.6729 19.978 32.4712 15.7754 27.219 15.7754Z" fill="#F9DD47"/>
</svg>
