<svg width="45" height="40" viewBox="0 0 45 40" fill="none" xmlns="http://www.w3.org/2000/svg">
<path d="M42.2222 6.66667H32.5926V3.7037C32.5926 1.65741 30.9352 0 28.8889 0H15.5556C13.5093 0 11.8519 1.65741 11.8519 3.7037V6.66667H2.22222C0.990741 6.66667 0 7.65741 0 8.88889V25.3796C0.00925926 26.3148 0.592593 27.1574 1.48148 27.4722V37.7778C1.48148 39.0093 2.47222 40 3.7037 40H40.7407C41.9722 40 42.963 39.0093 42.963 37.7778V27.4722C43.8519 27.1574 44.4444 26.3241 44.4444 25.3796V8.88889C44.4444 7.65741 43.4537 6.66667 42.2222 6.66667ZM13.3333 3.7037C13.3333 2.47222 14.3241 1.48148 15.5556 1.48148H28.8889C30.1204 1.48148 31.1111 2.47222 31.1111 3.7037V6.66667H29.6296V3.7037C29.6296 3.2963 29.2963 2.96296 28.8889 2.96296H15.5556C15.1481 2.96296 14.8148 3.2963 14.8148 3.7037V6.66667H13.3333V3.7037ZM28.1481 6.66667H16.2963V4.44444H28.1481V6.66667ZM41.4815 37.7778C41.4815 38.1852 41.1481 38.5185 40.7407 38.5185H3.7037C3.2963 38.5185 2.96296 38.1852 2.96296 37.7778V27.7222L19.2593 29.9722V31.8519C19.2593 33.0833 20.25 34.0741 21.4815 34.0741H22.963C24.1944 34.0741 25.1852 33.0833 25.1852 31.8519V29.9722L41.4815 27.7222V37.7778ZM23.7037 31.8519C23.7037 32.2593 23.3704 32.5926 22.963 32.5926H21.4815C21.0741 32.5926 20.7407 32.2593 20.7407 31.8519V27.4074C20.7407 27 21.0741 26.6667 21.4815 26.6667H22.963C23.3704 26.6667 23.7037 27 23.7037 27.4074V31.8519ZM42.963 25.3796C42.963 25.75 42.6944 26.0648 42.3241 26.1111L42.1204 26.1389L25.1852 28.4722V27.4074C25.1852 26.1759 24.1944 25.1852 22.963 25.1852H21.4815C20.25 25.1852 19.2593 26.1759 19.2593 27.4074V28.4722L2.12037 26.1111C1.75926 26.0556 1.48148 25.75 1.48148 25.3796V8.88889C1.48148 8.48148 1.81481 8.14815 2.22222 8.14815H42.2222C42.6296 8.14815 42.963 8.48148 42.963 8.88889V25.3796Z" fill="#666979"/>
<mask id="mask0" mask-type="alpha" maskUnits="userSpaceOnUse" x="0" y="0" width="45" height="40">
<path d="M42.2222 6.66667H32.5926V3.7037C32.5926 1.65741 30.9352 0 28.8889 0H15.5556C13.5093 0 11.8519 1.65741 11.8519 3.7037V6.66667H2.22222C0.990741 6.66667 0 7.65741 0 8.88889V25.3796C0.00925926 26.3148 0.592593 27.1574 1.48148 27.4722V37.7778C1.48148 39.0093 2.47222 40 3.7037 40H40.7407C41.9722 40 42.963 39.0093 42.963 37.7778V27.4722C43.8519 27.1574 44.4444 26.3241 44.4444 25.3796V8.88889C44.4444 7.65741 43.4537 6.66667 42.2222 6.66667ZM13.3333 3.7037C13.3333 2.47222 14.3241 1.48148 15.5556 1.48148H28.8889C30.1204 1.48148 31.1111 2.47222 31.1111 3.7037V6.66667H29.6296V3.7037C29.6296 3.2963 29.2963 2.96296 28.8889 2.96296H15.5556C15.1481 2.96296 14.8148 3.2963 14.8148 3.7037V6.66667H13.3333V3.7037ZM28.1481 6.66667H16.2963V4.44444H28.1481V6.66667ZM41.4815 37.7778C41.4815 38.1852 41.1481 38.5185 40.7407 38.5185H3.7037C3.2963 38.5185 2.96296 38.1852 2.96296 37.7778V27.7222L19.2593 29.9722V31.8519C19.2593 33.0833 20.25 34.0741 21.4815 34.0741H22.963C24.1944 34.0741 25.1852 33.0833 25.1852 31.8519V29.9722L41.4815 27.7222V37.7778ZM23.7037 31.8519C23.7037 32.2593 23.3704 32.5926 22.963 32.5926H21.4815C21.0741 32.5926 20.7407 32.2593 20.7407 31.8519V27.4074C20.7407 27 21.0741 26.6667 21.4815 26.6667H22.963C23.3704 26.6667 23.7037 27 23.7037 27.4074V31.8519ZM42.963 25.3796C42.963 25.75 42.6944 26.0648 42.3241 26.1111L42.1204 26.1389L25.1852 28.4722V27.4074C25.1852 26.1759 24.1944 25.1852 22.963 25.1852H21.4815C20.25 25.1852 19.2593 26.1759 19.2593 27.4074V28.4722L2.12037 26.1111C1.75926 26.0556 1.48148 25.75 1.48148 25.3796V8.88889C1.48148 8.48148 1.81481 8.14815 2.22222 8.14815H42.2222C42.6296 8.14815 42.963 8.48148 42.963 8.88889V25.3796Z" fill="#666979"/>
</mask>
<g mask="url(#mask0)">
<rect x="3.95856" y="-11.3491" width="35.9917" height="18.0124" fill="#F9DD47"/>
<rect x="19.2619" y="24.5869" width="5.92674" height="10.1285" fill="#F9DD47"/>
</g>
</svg>
