<svg width="342" height="222" viewBox="0 0 342 222" fill="none" xmlns="http://www.w3.org/2000/svg">
<path d="M341.473 0H0V222H254.5L341.473 134V0Z" fill="#171921"/>
<path d="M50.8196 183.534C55.3928 183.534 58.9979 181.865 61.3012 178.861L56.3275 174.421C54.9589 176.157 53.3232 177.158 51.2202 177.158C47.9489 177.158 45.7458 174.888 45.7458 171.317C45.7458 167.745 47.9489 165.475 51.2202 165.475C53.3232 165.475 54.9589 166.477 56.3275 168.212L61.3012 163.773C58.9979 160.768 55.3928 159.099 50.8196 159.099C43.309 159.099 37.8011 164.14 37.8011 171.317C37.8011 178.494 43.309 183.534 50.8196 183.534ZM64.6814 159.633V183H72.4258V165.742H79.5359V183H87.2802V159.633H64.6814ZM92.4121 183H99.856L107.867 170.883V183H115.612V159.633H108.201L100.156 171.784V159.633H92.4121V183ZM144.029 159.633H135.817L130.843 168.346H128.44V159.633H120.562V183H128.44V174.555H130.643L135.116 183H143.995L137.085 170.983L144.029 159.633ZM154.379 177.058V173.987H164.26V168.312H154.379V165.575H165.628V159.633H146.635V183H166.062V177.058H154.379ZM181.507 159.633H170.258V183H178.136V177.259H181.507C188.017 177.259 192.156 173.854 192.156 168.446C192.156 163.038 188.017 159.633 181.507 159.633ZM181.007 171.183H178.136V165.709H181.007C183.176 165.709 184.211 166.744 184.211 168.446C184.211 170.148 183.176 171.183 181.007 171.183ZM207.753 183.534C215.364 183.534 220.939 178.393 220.939 171.317C220.939 164.24 215.364 159.099 207.753 159.099C200.143 159.099 194.568 164.24 194.568 171.317C194.568 178.393 200.143 183.534 207.753 183.534ZM207.753 177.158C204.849 177.158 202.513 174.955 202.513 171.317C202.513 167.678 204.849 165.475 207.753 165.475C210.658 165.475 212.994 167.678 212.994 171.317C212.994 174.955 210.658 177.158 207.753 177.158ZM242.733 170.749C244.636 169.714 245.737 167.979 245.737 165.742C245.737 161.87 242.399 159.633 236.624 159.633H224.774V183H237.259C243.367 183 246.772 180.363 246.772 176.224C246.772 173.52 245.303 171.684 242.733 170.749ZM232.518 165.141H235.857C237.192 165.141 237.793 165.776 237.793 166.91C237.793 168.045 237.192 168.613 235.857 168.613H232.518V165.141ZM236.891 177.492H232.518V173.82H236.891C238.193 173.82 238.827 174.421 238.827 175.623C238.827 176.825 238.193 177.492 236.891 177.492Z" fill="#F9DD47"/>
<path d="M154.575 138C144.67 138 135.43 132.47 128.5 122.39C121.71 112.52 118 99.43 118 85.5C118 71.605 121.745 58.48 128.5 48.61C135.43 38.53 144.67 33 154.575 33C164.48 33 173.72 38.53 180.65 48.61C187.44 58.48 191.15 71.57 191.15 85.5C191.15 99.395 187.405 112.52 180.65 122.39C173.72 132.47 164.445 138 154.575 138ZM154.575 36.255C136.235 36.255 121.29 58.34 121.29 85.5C121.29 112.66 136.2 134.745 154.575 134.745C172.915 134.745 187.86 112.66 187.86 85.5C187.825 58.34 172.915 36.255 154.575 36.255Z" fill="#F9DD47"/>
<path d="M154.575 133.135C146.35 133.135 138.23 128.025 132.28 119.135C126.26 110.14 122.935 98.205 122.935 85.535C122.935 72.865 126.26 60.9301 132.28 51.9351C138.23 43.0451 146.35 37.9351 154.575 37.9351C162.8 37.9351 170.92 43.0451 176.87 51.9351C182.89 60.9301 186.215 72.865 186.215 85.535C186.215 98.205 182.89 110.14 176.87 119.135C170.885 128.025 162.765 133.135 154.575 133.135ZM154.575 41.1551C139.245 41.1551 126.26 61.4551 126.26 85.535C126.26 109.58 139.21 129.915 154.575 129.915C169.94 129.915 182.89 109.615 182.89 85.535C182.855 61.4551 169.905 41.1551 154.575 41.1551Z" fill="#F9DD47"/>
<path d="M154.575 128.235C147.89 128.235 141.135 123.72 136.06 115.845C130.81 107.69 127.905 96.9101 127.905 85.5001C127.905 74.0901 130.81 63.3101 136.06 55.1551C141.135 47.2801 147.89 42.7651 154.575 42.7651C161.26 42.7651 168.015 47.2801 173.09 55.1551C178.34 63.3101 181.245 74.0901 181.245 85.5001C181.245 96.9101 178.34 107.69 173.09 115.845C167.98 123.72 161.26 128.235 154.575 128.235ZM154.575 46.0201C143.515 46.0201 131.23 62.2251 131.23 85.5001C131.23 108.775 143.55 124.98 154.575 124.98C165.635 124.98 177.92 108.775 177.92 85.5001C177.92 62.2251 165.6 46.0201 154.575 46.0201Z" fill="#F9DD47"/>
<path d="M154.575 123.37C149.5 123.37 144.005 119.345 139.84 112.59C135.36 105.31 132.875 95.6852 132.875 85.5352C132.875 75.3852 135.36 65.7602 139.84 58.4802C144.005 51.7252 149.5 47.7002 154.575 47.7002C159.65 47.7002 165.145 51.7252 169.31 58.4802C173.79 65.7602 176.275 75.3852 176.275 85.5352C176.275 95.6852 173.79 105.31 169.31 112.59C165.145 119.31 159.65 123.37 154.575 123.37ZM154.575 50.8852C147.085 50.8852 136.2 64.3602 136.2 85.5002C136.2 106.605 147.085 120.115 154.575 120.115C162.065 120.115 172.95 106.64 172.95 85.5002C172.95 64.3952 162.065 50.8852 154.575 50.8852Z" fill="#F9DD47"/>
<path d="M154.575 118.47C147.925 118.47 137.845 105.31 137.845 85.5002C137.845 65.6902 147.925 52.5303 154.575 52.5303C161.225 52.5303 171.305 65.6902 171.305 85.5002C171.305 105.31 161.225 118.47 154.575 118.47ZM154.575 55.7853C150.69 55.7853 141.135 66.2152 141.135 85.5002C141.135 104.82 150.655 115.215 154.575 115.215C158.46 115.215 168.015 104.785 168.015 85.5002C167.98 66.1802 158.46 55.7853 154.575 55.7853Z" fill="#F9DD47"/>
<path d="M90.6074 97.915C90.8517 99.1715 90.9913 100.428 90.9913 101.719C90.9913 106.535 89.0717 111.038 85.6166 114.458C82.1265 117.878 77.6243 119.763 72.808 119.693C63.0009 119.588 55.0087 111.526 55.0087 101.684H51.728C51.728 113.271 61.1512 122.834 72.7382 122.939C72.8429 122.939 72.9127 122.939 73.0174 122.939C78.6015 122.939 83.8715 120.74 87.92 116.761C92.0034 112.713 94.2719 107.373 94.2719 101.684C94.2719 100.184 94.1323 98.6828 93.8182 97.217C93.0504 93.5524 91.1658 90.1322 83.348 80.0459L80.7305 82.0701C88.269 91.8074 89.9443 94.7391 90.6074 97.915Z" fill="#F9DD47"/>
<path d="M100.205 95.9607C100.589 97.8453 100.798 99.7997 100.798 101.754C100.798 109.188 97.8319 116.203 92.4921 121.473C87.1523 126.743 80.1023 129.64 72.6685 129.535C57.5216 129.361 45.1668 116.901 45.1668 101.719H41.921C41.921 118.681 55.7068 132.606 72.6685 132.816C72.7732 132.816 72.9128 132.816 73.0175 132.816C81.2191 132.816 88.9671 129.64 94.8304 123.811C100.798 117.913 104.079 110.095 104.079 101.754C104.079 99.5903 103.87 97.4265 103.416 95.2975C102.369 90.1671 99.8561 85.3857 91.4799 74.2524L88.8624 76.2418C96.9942 86.9912 99.2628 91.284 100.205 95.9607Z" fill="#F9DD47"/>
<path d="M85.7911 98.9273C85.9656 99.8347 86.0703 100.777 86.0703 101.719C86.0703 105.209 84.6743 108.49 82.1614 110.968C79.6137 113.481 76.2981 114.842 72.8429 114.772C65.7232 114.702 59.8948 108.839 59.8948 101.684H56.6141C56.6141 110.619 63.8735 117.948 72.7732 118.053C72.843 118.053 72.9127 118.053 72.9825 118.053C77.2753 118.053 81.3238 116.378 84.43 113.306C87.571 110.2 89.316 106.082 89.316 101.719C89.316 100.533 89.2113 99.381 88.967 98.2641C88.3737 95.3325 86.7683 92.6102 79.1949 83.3267L76.5424 85.3509C83.9065 94.2157 85.3025 96.4842 85.7911 98.9273Z" fill="#F9DD47"/>
<path d="M105.021 94.9485C105.475 97.1822 105.719 99.4507 105.719 101.719C105.719 110.479 102.264 118.716 95.9821 124.928C89.8047 131.036 81.6379 134.421 73.0175 134.421C72.8778 134.421 72.7732 134.421 72.6336 134.421C63.9782 134.316 55.8463 130.896 49.7387 124.719C43.6311 118.541 40.2806 110.375 40.2806 101.719H37C37 111.247 40.6995 120.251 47.4004 127.022C54.1013 133.793 63.0359 137.597 72.5637 137.702C72.7034 137.702 72.843 137.702 72.9826 137.702C82.4755 137.702 91.445 134.002 98.2506 127.267C105.161 120.426 108.965 111.387 108.965 101.719C108.965 99.2064 108.721 96.6935 108.197 94.2854C106.976 88.4221 104.184 82.9427 95.3539 71.251L92.7363 73.2403C101.322 84.583 103.905 89.5738 105.021 94.9485Z" fill="#F9DD47"/>
<path d="M95.4236 96.9378C95.7377 98.5084 95.9122 100.114 95.9122 101.719C95.9122 107.827 93.4692 113.62 89.0717 117.948C84.6742 122.311 78.8807 124.649 72.7382 124.579C60.2438 124.44 50.0877 114.179 50.0877 101.684H46.807C46.807 115.959 58.4289 127.685 72.7033 127.86C72.808 127.86 72.9127 127.86 72.9825 127.86C79.8928 127.86 86.3843 125.172 91.3402 120.251C96.3659 115.296 99.158 108.699 99.158 101.684C99.158 99.8346 98.9835 98.0197 98.5996 96.2398C97.6922 91.8423 95.4934 87.759 87.4314 77.1143L84.8138 79.1036C92.6316 89.3993 94.6209 93.029 95.4236 96.9378Z" fill="#F9DD47"/>
<path d="M104.079 55.8598V37.9209H39.8618V41.1667H100.798V54.2544L70.714 77.3237L72.6684 79.9413L104.079 55.8598Z" fill="#F9DD47"/>
<path d="M94.272 51.0087V47.728H39.8618V51.0087H88.8972L64.9205 69.4013L66.8749 72.0189L94.272 51.0087Z" fill="#F9DD47"/>
<path d="M109 33H39.8618V36.2807H105.719V56.6975L73.5758 81.2327L75.5303 83.8851L109 58.303V33Z" fill="#F9DD47"/>
<path d="M84.0112 52.6494H39.8618V55.8952H74.3786L62.0237 65.4231L63.9433 68.0755L84.0112 52.6494Z" fill="#F9DD47"/>
<path d="M99.158 53.4518V42.8071H39.8618V46.0878H95.9123V51.8115L67.8173 73.3452L69.7717 75.9976L99.158 53.4518Z" fill="#F9DD47"/>
<path d="M305.325 56.605H295.315V46.705H290.695V56.605H280.685V60.95H290.695V70.795H295.315V60.95H305.325V56.605Z" fill="white"/>
</svg>
