<svg width="342" height="222" viewBox="0 0 342 222" fill="none" xmlns="http://www.w3.org/2000/svg">
<path d="M-6.10352e-05 222L341.473 222L341.473 0L86.9727 -2.22491e-05L-4.93205e-05 88L-6.10352e-05 222Z" fill="#171921"/>
<path d="M287.305 103.771L287.305 111.516L307 111.516L307 115.822L287.305 115.822L287.305 123.533L283.633 123.533L283.633 103.771L287.305 103.771ZM303.361 79.5038L307 79.5038L307 97.0287L283.633 97.0287L283.633 79.9711L287.272 79.9711L287.272 92.6892L293.347 92.6892L293.347 81.4065L296.919 81.4065L296.919 92.6892L303.361 92.6892L303.361 79.5038ZM307 50.2023L291.511 50.2357L304.33 57.9133L304.33 59.8494L291.712 67.5269L307 67.5269L307 71.6328L283.633 71.6328L283.633 68.061L299.089 58.8146L283.633 49.6682L283.633 46.1299L307 46.0631L307 50.2023Z" fill="white"/>
<path d="M287.305 103.771L289.105 103.771L289.105 101.971L287.305 101.971L287.305 103.771ZM287.305 111.516L285.505 111.516L285.505 113.316L287.305 113.316L287.305 111.516ZM307 111.516L308.8 111.516L308.8 109.716L307 109.716L307 111.516ZM307 115.822L307 117.622L308.8 117.622L308.8 115.822L307 115.822ZM287.305 115.822L287.305 114.022L285.505 114.022L285.505 115.822L287.305 115.822ZM287.305 123.533L287.305 125.333L289.105 125.333L289.105 123.533L287.305 123.533ZM283.633 123.533L281.833 123.533L281.833 125.333L283.633 125.333L283.633 123.533ZM283.633 103.771L283.633 101.971L281.833 101.971L281.833 103.771L283.633 103.771ZM285.505 103.771L285.505 111.516L289.105 111.516L289.105 103.771L285.505 103.771ZM287.305 113.316L307 113.316L307 109.716L287.305 109.716L287.305 113.316ZM305.2 111.516L305.2 115.822L308.8 115.822L308.8 111.516L305.2 111.516ZM307 114.022L287.305 114.022L287.305 117.622L307 117.622L307 114.022ZM285.505 115.822L285.505 123.533L289.105 123.533L289.105 115.822L285.505 115.822ZM287.305 121.733L283.633 121.733L283.633 125.333L287.305 125.333L287.305 121.733ZM285.433 123.533L285.433 103.771L281.833 103.771L281.833 123.533L285.433 123.533ZM283.633 105.571L287.305 105.571L287.305 101.971L283.633 101.971L283.633 105.571ZM303.361 79.5038L303.361 77.7038L301.561 77.7038L301.561 79.5038L303.361 79.5038ZM307 79.5038L308.8 79.5038L308.8 77.7038L307 77.7038L307 79.5038ZM307 97.0287L307 98.8287L308.8 98.8287L308.8 97.0287L307 97.0287ZM283.633 97.0287L281.833 97.0287L281.833 98.8287L283.633 98.8287L283.633 97.0287ZM283.633 79.9711L283.633 78.1711L281.833 78.1711L281.833 79.9711L283.633 79.9711ZM287.272 79.9711L289.072 79.9711L289.072 78.1711L287.272 78.1711L287.272 79.9711ZM287.272 92.6892L285.472 92.6892L285.472 94.4892L287.272 94.4892L287.272 92.6892ZM293.347 92.6892L293.347 94.4892L295.147 94.4892L295.147 92.6892L293.347 92.6892ZM293.347 81.4065L293.347 79.6065L291.547 79.6065L291.547 81.4065L293.347 81.4065ZM296.919 81.4065L298.719 81.4065L298.719 79.6065L296.919 79.6065L296.919 81.4065ZM296.919 92.6892L295.119 92.6892L295.119 94.4892L296.919 94.4892L296.919 92.6892ZM303.361 92.6892L303.361 94.4892L305.161 94.4892L305.161 92.6892L303.361 92.6892ZM303.361 81.3038L307 81.3038L307 77.7038L303.361 77.7038L303.361 81.3038ZM305.2 79.5038L305.2 97.0287L308.8 97.0287L308.8 79.5038L305.2 79.5038ZM307 95.2287L283.633 95.2287L283.633 98.8287L307 98.8287L307 95.2287ZM285.433 97.0287L285.433 79.9711L281.833 79.9711L281.833 97.0287L285.433 97.0287ZM283.633 81.7711L287.272 81.7711L287.272 78.1711L283.633 78.1711L283.633 81.7711ZM285.472 79.9711L285.472 92.6892L289.072 92.6892L289.072 79.9711L285.472 79.9711ZM287.272 94.4892L293.347 94.4892L293.347 90.8892L287.272 90.8892L287.272 94.4892ZM295.147 92.6892L295.147 81.4065L291.547 81.4065L291.547 92.6892L295.147 92.6892ZM293.347 83.2065L296.919 83.2065L296.919 79.6065L293.347 79.6065L293.347 83.2065ZM295.119 81.4065L295.119 92.6892L298.719 92.6892L298.719 81.4065L295.119 81.4065ZM296.919 94.4892L303.361 94.4892L303.361 90.8892L296.919 90.8892L296.919 94.4892ZM305.161 92.6892L305.161 79.5038L301.561 79.5038L301.561 92.6892L305.161 92.6892ZM307 50.2023L307.004 52.0023L308.8 51.9984L308.8 50.2023L307 50.2023ZM291.511 50.2357L291.507 48.4357L285.026 48.4497L290.586 51.7799L291.511 50.2357ZM304.33 57.9133L306.13 57.9133L306.13 56.8932L305.254 56.3691L304.33 57.9133ZM304.33 59.8494L305.265 61.3871L306.13 60.8612L306.13 59.8494L304.33 59.8494ZM291.712 67.5269L290.776 65.9892L285.29 69.3269L291.712 69.3269L291.712 67.5269ZM307 67.5269L308.8 67.5269L308.8 65.7269L307 65.7269L307 67.5269ZM307 71.6328L307 73.4328L308.8 73.4328L308.8 71.6328L307 71.6328ZM283.633 71.6328L281.833 71.6328L281.833 73.4328L283.633 73.4328L283.633 71.6328ZM283.633 68.061L282.709 66.5164L281.833 67.0404L281.833 68.061L283.633 68.061ZM299.089 58.8146L300.013 60.3592L302.609 58.8061L300.005 57.2655L299.089 58.8146ZM283.633 49.6682L281.833 49.6682L281.833 50.6946L282.717 51.2173L283.633 49.6682ZM283.633 46.1299L283.628 44.3299L281.833 44.335L281.833 46.1299L283.633 46.1299ZM307 46.0631L308.8 46.0631L308.8 44.258L306.995 44.2631L307 46.0631ZM306.996 48.4023L291.507 48.4357L291.515 52.0357L307.004 52.0023L306.996 48.4023ZM290.586 51.7799L303.405 59.4575L305.254 56.3691L292.436 48.6915L290.586 51.7799ZM302.53 57.9133L302.53 59.8494L306.13 59.8494L306.13 57.9133L302.53 57.9133ZM303.394 58.3117L290.776 65.9892L292.647 69.0647L305.265 61.3871L303.394 58.3117ZM291.712 69.3269L307 69.3269L307 65.7269L291.712 65.7269L291.712 69.3269ZM305.2 67.5269L305.2 71.6328L308.8 71.6328L308.8 67.5269L305.2 67.5269ZM307 69.8328L283.633 69.8328L283.633 73.4328L307 73.4328L307 69.8328ZM285.433 71.6328L285.433 68.061L281.833 68.061L281.833 71.6328L285.433 71.6328ZM284.558 69.6057L300.013 60.3592L298.165 57.2699L282.709 66.5164L284.558 69.6057ZM300.005 57.2655L284.55 48.1192L282.717 51.2173L298.172 60.3636L300.005 57.2655ZM285.433 49.6682L285.433 46.1299L281.833 46.1299L281.833 49.6682L285.433 49.6682ZM283.639 47.9299L307.005 47.8631L306.995 44.2631L283.628 44.3299L283.639 47.9299ZM305.2 46.0631L305.2 50.2023L308.8 50.2023L308.8 46.0631L305.2 46.0631Z" fill="white"/>
<path d="M222.386 182.874C209.38 182.874 197.247 175.613 188.148 162.377C179.232 149.417 174.36 132.228 174.36 113.937C174.36 95.6917 179.278 78.4574 188.148 65.4973C197.247 52.2614 209.38 45 222.386 45C235.392 45 247.525 52.2614 256.625 65.4973C265.541 78.4574 270.412 95.6457 270.412 113.937C270.412 132.182 265.495 149.417 256.625 162.377C247.525 175.613 235.346 182.874 222.386 182.874ZM222.386 49.2741C198.304 49.2741 178.68 78.2736 178.68 113.937C178.68 149.6 198.258 178.6 222.386 178.6C246.468 178.6 266.092 149.6 266.092 113.937C266.046 78.2736 246.468 49.2741 222.386 49.2741Z" fill="white"/>
<path d="M222.386 176.486C211.586 176.486 200.924 169.776 193.111 158.103C185.206 146.292 180.84 130.62 180.84 113.983C180.84 97.3465 185.206 81.6749 193.111 69.8637C200.924 58.1903 211.586 51.4805 222.386 51.4805C233.186 51.4805 243.849 58.1903 251.661 69.8637C259.566 81.6749 263.932 97.3465 263.932 113.983C263.932 130.62 259.566 146.292 251.661 158.103C243.803 169.776 233.14 176.486 222.386 176.486ZM222.386 55.7086C202.257 55.7086 185.206 82.3642 185.206 113.983C185.206 145.556 202.211 172.258 222.386 172.258C242.562 172.258 259.566 145.602 259.566 113.983C259.52 82.3642 242.516 55.7086 222.386 55.7086Z" fill="white"/>
<path d="M222.386 170.052C213.608 170.052 204.738 164.123 198.075 153.783C191.181 143.074 187.366 128.919 187.366 113.937C187.366 98.9547 191.181 84.7996 198.075 74.0914C204.738 63.7509 213.608 57.8223 222.386 57.8223C231.164 57.8223 240.034 63.7509 246.698 74.0914C253.592 84.7996 257.406 98.9547 257.406 113.937C257.406 128.919 253.592 143.074 246.698 153.783C239.988 164.123 231.164 170.052 222.386 170.052ZM222.386 62.0964C207.864 62.0964 191.732 83.3749 191.732 113.937C191.732 144.499 207.91 165.778 222.386 165.778C236.909 165.778 253.04 144.499 253.04 113.937C253.04 83.3749 236.863 62.0964 222.386 62.0964Z" fill="white"/>
<path d="M222.386 163.663C215.722 163.663 208.507 158.378 203.038 149.508C197.155 139.949 193.892 127.311 193.892 113.983C193.892 100.655 197.155 88.0166 203.038 78.4573C208.507 69.5874 215.722 64.3022 222.386 64.3022C229.05 64.3022 236.266 69.5874 241.735 78.4573C247.617 88.0166 250.88 100.655 250.88 113.983C250.88 127.311 247.617 139.949 241.735 149.508C236.266 158.332 229.05 163.663 222.386 163.663ZM222.386 68.4844C212.551 68.4844 198.258 86.1783 198.258 113.937C198.258 141.65 212.551 159.389 222.386 159.389C232.221 159.389 246.514 141.696 246.514 113.937C246.514 86.2242 232.221 68.4844 222.386 68.4844Z" fill="white"/>
<path d="M222.386 157.23C213.654 157.23 200.418 139.95 200.418 113.937C200.418 87.9252 213.654 70.645 222.386 70.645C231.118 70.645 244.354 87.9252 244.354 113.937C244.354 139.95 231.118 157.23 222.386 157.23ZM222.386 74.9191C217.285 74.9191 204.738 88.6146 204.738 113.937C204.738 139.306 217.239 152.956 222.386 152.956C227.488 152.956 240.034 139.26 240.034 113.937C239.988 88.5686 227.488 74.9191 222.386 74.9191Z" fill="white"/>
<path d="M142.391 130.239C142.712 131.888 142.895 133.538 142.895 135.234C142.895 141.558 140.375 147.47 135.838 151.961C131.255 156.452 125.343 158.927 119.019 158.835C106.142 158.698 95.647 148.111 95.647 135.188H91.3392C91.3392 150.403 103.713 162.959 118.927 163.097C119.065 163.097 119.157 163.097 119.294 163.097C126.626 163.097 133.546 160.21 138.862 154.985C144.224 149.669 147.203 142.658 147.203 135.188C147.203 133.217 147.02 131.247 146.607 129.322C145.599 124.51 143.124 120.019 132.859 106.775L129.422 109.433C139.321 122.219 141.52 126.068 142.391 130.239Z" fill="white"/>
<path d="M154.994 127.672C155.498 130.147 155.773 132.713 155.773 135.28C155.773 145.041 151.878 154.252 144.866 161.172C137.854 168.092 128.597 171.896 118.836 171.758C98.9467 171.529 82.7237 155.169 82.7237 135.234H78.4618C78.4618 157.506 96.5637 175.791 118.836 176.066C118.973 176.066 119.157 176.066 119.294 176.066C130.064 176.066 140.237 171.896 147.936 164.243C155.773 156.498 160.081 146.232 160.081 135.28C160.081 132.438 159.806 129.597 159.21 126.802C157.835 120.065 154.536 113.786 143.537 99.1675L140.1 101.78C150.778 115.895 153.756 121.531 154.994 127.672Z" fill="white"/>
<path d="M136.067 131.568C136.296 132.759 136.433 133.997 136.433 135.234C136.433 139.817 134.6 144.125 131.301 147.378C127.955 150.678 123.602 152.465 119.065 152.374C109.716 152.282 102.063 144.583 102.063 135.188H97.755C97.755 146.92 107.287 156.544 118.973 156.681C119.065 156.681 119.156 156.681 119.248 156.681C124.885 156.681 130.201 154.482 134.28 150.449C138.404 146.37 140.695 140.963 140.695 135.234C140.695 133.676 140.558 132.164 140.237 130.697C139.458 126.848 137.35 123.273 127.405 111.083L123.923 113.741C133.592 125.381 135.425 128.36 136.067 131.568Z" fill="white"/>
<path d="M161.318 126.344C161.914 129.277 162.234 132.256 162.234 135.235C162.234 146.737 157.698 157.553 149.449 165.71C141.337 173.73 130.613 178.175 119.294 178.175C119.111 178.175 118.973 178.175 118.79 178.175C107.425 178.037 96.7469 173.546 88.7271 165.435C80.7072 157.323 76.3078 146.6 76.3078 135.235H72C72 147.745 76.8577 159.569 85.6566 168.459C94.4555 177.35 106.187 182.345 118.698 182.483C118.882 182.483 119.065 182.483 119.248 182.483C131.713 182.483 143.491 177.625 152.427 168.78C161.501 159.798 166.496 147.929 166.496 135.235C166.496 131.935 166.176 128.635 165.488 125.473C163.884 117.774 160.218 110.579 148.624 95.2271L145.187 97.8392C156.46 112.733 159.851 119.287 161.318 126.344Z" fill="white"/>
<path d="M148.715 128.956C149.128 131.018 149.357 133.126 149.357 135.234C149.357 143.254 146.149 150.861 140.375 156.544C134.6 162.272 126.993 165.343 118.927 165.251C102.521 165.068 89.1852 151.595 89.1852 135.188H84.8774C84.8774 153.932 100.138 169.33 118.881 169.559C119.019 169.559 119.156 169.559 119.248 169.559C128.322 169.559 136.846 166.03 143.353 159.569C149.953 153.061 153.619 144.4 153.619 135.188C153.619 132.76 153.39 130.376 152.886 128.039C151.694 122.265 148.807 116.903 138.221 102.926L134.784 105.538C145.049 119.057 147.661 123.823 148.715 128.956Z" fill="white"/>
<path d="M160.08 75.0168V51.4614H75.7577V55.7234H155.773V72.9087L116.269 103.201L118.836 106.638L160.08 75.0168Z" fill="white"/>
<path d="M147.203 68.6467V64.3389H75.7577V68.6467H140.145L108.662 92.7978L111.228 96.2348L147.203 68.6467Z" fill="white"/>
<path d="M166.542 45H75.7577V49.3078H162.234V76.1169L120.027 108.334L122.593 111.817L166.542 78.225V45Z" fill="white"/>
<path d="M133.73 70.8008H75.7577V75.0627H121.081L104.858 87.5737L107.379 91.0566L133.73 70.8008Z" fill="white"/>
<path d="M153.619 71.8548V57.8774H75.7577V62.1852H149.357V69.7009L112.466 97.9766L115.032 101.459L153.619 71.8548Z" fill="white"/>
<path d="M48.685 113.65V118.6H39.115V128.06H34.44V118.6H24.925V113.65H34.44V104.135H39.115V113.65H48.685Z" fill="white"/>
<path d="M312 147H283L312 176V147Z" fill="#F9DD47"/>
</svg>
