<svg width="308" height="308" viewBox="0 0 308 308" fill="none" xmlns="http://www.w3.org/2000/svg">
<path d="M308 0H0L308 308V0Z" fill="#F9DD47"/>
<path d="M273.09 97.082H260.119L260.119 111.455L265.463 111.649C269.929 111.844 273.09 112.402 273.09 114.514V115H281.119V109.756H277.681V100.093H281.119V94.8483H273.09V97.082ZM265.965 106.672L264.71 106.624V102.715H273.09L273.09 107.959C271.585 107.109 269.076 106.794 265.965 106.672Z" fill="#171921"/>
<path d="M273.215 86.3201H270.907L270.907 79.1334H266.642L266.642 86.3201H264.585L264.585 78.138L260.119 78.138L260.119 91.9528H277.681L277.681 77.8224L273.215 77.8224L273.215 86.3201Z" fill="#171921"/>
<path d="M260.119 63.5041H266.341L266.341 68.797H260.119L260.119 74.5268H277.681V68.797H271.208L271.208 63.5041H277.681V57.7742H260.119L260.119 63.5041Z" fill="#171921"/>
<path d="M265.513 44.6282L265.513 48.1487H260.119L260.119 53.7814H277.681V45.3566C277.681 40.8649 275.499 38 271.309 38C267.42 38 265.513 40.4765 265.513 44.6282ZM273.542 45.745V48.1487L269.653 48.1487V45.745C269.653 44.6039 270.079 43.7542 271.409 43.7542C272.764 43.7542 273.542 44.6039 273.542 45.745Z" fill="#171921"/>
<mask id="mask0" mask-type="alpha" maskUnits="userSpaceOnUse" x="0" y="0" width="308" height="308">
<path d="M308 0H0L308 308V0Z" fill="#F9DD47"/>
</mask>
<g mask="url(#mask0)">
<path d="M208 58.2158V61.591H240.387V58.2158H208Z" fill="#171921"/>
<path d="M208 48.0894V51.4645H240.387V48.1253L208 48.0894Z" fill="#171921"/>
<path d="M208 53.1528V56.528H240.387V53.1528H208Z" fill="#171921"/>
<path d="M208 43.0625V46.4377H240.387V43.0625H208Z" fill="#171921"/>
<path d="M240 64H237V252H240V64Z" fill="#171921"/>
<path d="M208 38V41.3752H240.387V38H208Z" fill="#171921"/>
<path d="M235 64H232V252H235V64Z" fill="#171921"/>
<path d="M230 64H227V252H230V64Z" fill="#171921"/>
<path d="M225 64H222V252H225V64Z" fill="#171921"/>
<path d="M220 64H217V252H220V64Z" fill="#171921"/>
</g>
</svg>
