<svg width="481" height="385" viewBox="0 0 481 385" fill="none" xmlns="http://www.w3.org/2000/svg">
<path d="M0 148H388V385H80.5L0 305.5V148Z" fill="white"/>
<path d="M199.728 319.5C185.719 319.5 172.651 311.679 162.85 297.423C153.247 283.464 148 264.951 148 245.25C148 225.599 153.297 207.036 162.85 193.077C172.651 178.821 185.719 171 199.728 171C213.736 171 226.804 178.821 236.605 193.077C246.208 207.036 251.455 225.549 251.455 245.25C251.455 264.902 246.159 283.464 236.605 297.423C226.804 311.679 213.687 319.5 199.728 319.5ZM199.728 175.604C173.79 175.604 152.653 206.838 152.653 245.25C152.653 283.662 173.74 314.897 199.728 314.897C225.666 314.897 246.802 283.662 246.802 245.25C246.753 206.838 225.666 175.604 199.728 175.604Z" fill="#171921"/>
<path d="M199.728 312.619C188.095 312.619 176.611 305.392 168.196 292.819C159.682 280.098 154.979 263.218 154.979 245.299C154.979 227.38 159.682 210.501 168.196 197.779C176.611 185.206 188.095 177.979 199.728 177.979C211.36 177.979 222.844 185.206 231.259 197.779C239.773 210.501 244.475 227.38 244.475 245.299C244.475 263.218 239.773 280.098 231.259 292.819C222.795 305.392 211.311 312.619 199.728 312.619ZM199.728 182.533C178.047 182.533 159.682 211.243 159.682 245.299C159.682 279.306 177.997 308.065 199.728 308.065C221.458 308.065 239.773 279.355 239.773 245.299C239.723 211.243 221.409 182.533 199.728 182.533Z" fill="#171921"/>
<path d="M199.728 305.69C190.273 305.69 180.72 299.304 173.542 288.167C166.117 276.633 162.009 261.387 162.009 245.25C162.009 229.113 166.117 213.867 173.542 202.334C180.72 191.196 190.273 184.811 199.728 184.811C209.182 184.811 218.736 191.196 225.913 202.334C233.338 213.867 237.447 229.113 237.447 245.25C237.447 261.387 233.338 276.633 225.913 288.167C218.686 299.304 209.182 305.69 199.728 305.69ZM199.728 189.414C184.086 189.414 166.711 212.333 166.711 245.25C166.711 278.168 184.135 301.086 199.728 301.086C215.37 301.086 232.744 278.168 232.744 245.25C232.744 212.333 215.32 189.414 199.728 189.414Z" fill="#171921"/>
<path d="M199.727 298.809C192.55 298.809 184.778 293.117 178.888 283.563C172.552 273.267 169.037 259.655 169.037 245.3C169.037 230.945 172.552 217.332 178.888 207.036C184.778 197.483 192.55 191.79 199.727 191.79C206.905 191.79 214.676 197.483 220.567 207.036C226.903 217.332 230.417 230.945 230.417 245.3C230.417 259.655 226.903 273.267 220.567 283.563C214.676 293.067 206.905 298.809 199.727 298.809ZM199.727 196.295C189.134 196.295 173.74 215.352 173.74 245.25C173.74 275.099 189.134 294.206 199.727 294.206C210.32 294.206 225.715 275.148 225.715 245.25C225.715 215.402 210.32 196.295 199.727 196.295Z" fill="#171921"/>
<path d="M199.728 291.879C190.323 291.879 176.067 273.267 176.067 245.25C176.067 217.233 190.323 198.621 199.728 198.621C209.133 198.621 223.388 217.233 223.388 245.25C223.388 273.267 209.133 291.879 199.728 291.879ZM199.728 203.225C194.233 203.225 180.72 217.976 180.72 245.25C180.72 272.574 194.184 287.276 199.728 287.276C205.222 287.276 218.735 272.525 218.735 245.25C218.686 217.926 205.222 203.225 199.728 203.225Z" fill="#171921"/>
<path d="M312.728 319.5C298.719 319.5 285.651 311.679 275.85 297.423C266.247 283.464 261 264.951 261 245.25C261 225.599 266.297 207.036 275.85 193.077C285.651 178.821 298.719 171 312.728 171C326.736 171 339.804 178.821 349.605 193.077C359.208 207.036 364.455 225.549 364.455 245.25C364.455 264.902 359.159 283.464 349.605 297.423C339.804 311.679 326.687 319.5 312.728 319.5ZM312.728 175.604C286.79 175.604 265.653 206.838 265.653 245.25C265.653 283.662 286.74 314.897 312.728 314.897C338.666 314.897 359.802 283.662 359.802 245.25C359.753 206.838 338.666 175.604 312.728 175.604Z" fill="#171921"/>
<path d="M312.728 312.619C301.095 312.619 289.611 305.392 281.196 292.819C272.682 280.098 267.979 263.218 267.979 245.299C267.979 227.38 272.682 210.501 281.196 197.779C289.611 185.206 301.095 177.979 312.728 177.979C324.36 177.979 335.844 185.206 344.259 197.779C352.773 210.501 357.475 227.38 357.475 245.299C357.475 263.218 352.773 280.098 344.259 292.819C335.795 305.392 324.311 312.619 312.728 312.619ZM312.728 182.533C291.047 182.533 272.682 211.243 272.682 245.299C272.682 279.306 290.997 308.065 312.728 308.065C334.458 308.065 352.773 279.355 352.773 245.299C352.723 211.243 334.409 182.533 312.728 182.533Z" fill="#171921"/>
<path d="M312.728 305.69C303.273 305.69 293.72 299.304 286.542 288.167C279.117 276.633 275.009 261.387 275.009 245.25C275.009 229.113 279.117 213.867 286.542 202.334C293.72 191.196 303.273 184.811 312.728 184.811C322.182 184.811 331.736 191.196 338.913 202.334C346.338 213.867 350.447 229.113 350.447 245.25C350.447 261.387 346.338 276.633 338.913 288.167C331.686 299.304 322.182 305.69 312.728 305.69ZM312.728 189.414C297.086 189.414 279.711 212.333 279.711 245.25C279.711 278.168 297.135 301.086 312.728 301.086C328.37 301.086 345.744 278.168 345.744 245.25C345.744 212.333 328.32 189.414 312.728 189.414Z" fill="#171921"/>
<path d="M312.727 298.809C305.55 298.809 297.778 293.117 291.888 283.563C285.552 273.267 282.037 259.655 282.037 245.3C282.037 230.945 285.552 217.332 291.888 207.036C297.778 197.483 305.55 191.79 312.727 191.79C319.905 191.79 327.676 197.483 333.567 207.036C339.903 217.332 343.417 230.945 343.417 245.3C343.417 259.655 339.903 273.267 333.567 283.563C327.676 293.067 319.905 298.809 312.727 298.809ZM312.727 196.295C302.134 196.295 286.74 215.352 286.74 245.25C286.74 275.099 302.134 294.206 312.727 294.206C323.32 294.206 338.715 275.148 338.715 245.25C338.715 215.402 323.32 196.295 312.727 196.295Z" fill="#171921"/>
<path d="M312.728 291.879C303.323 291.879 289.067 273.267 289.067 245.25C289.067 217.233 303.323 198.621 312.728 198.621C322.133 198.621 336.388 217.233 336.388 245.25C336.388 273.267 322.133 291.879 312.728 291.879ZM312.728 203.225C307.233 203.225 293.72 217.976 293.72 245.25C293.72 272.574 307.184 287.276 312.728 287.276C318.222 287.276 331.735 272.525 331.735 245.25C331.686 217.926 318.222 203.225 312.728 203.225Z" fill="#171921"/>
<path d="M137.505 227.331H132.852V319.55H137.505V227.331Z" fill="#171921"/>
<path d="M130.476 227.331H125.823V319.55H130.476V227.331Z" fill="#171921"/>
<path d="M123.497 227.331H118.844V319.55H123.497V227.331Z" fill="#171921"/>
<path d="M116.467 227.282H111.814V319.5H116.467V227.282Z" fill="#171921"/>
<path d="M109.488 227.282H104.835V319.5H109.488V227.282Z" fill="#171921"/>
<path d="M102.607 278.91H39V283.563H102.607V278.91Z" fill="#171921"/>
<path d="M102.607 271.931H39V276.584H102.607V271.931Z" fill="#171921"/>
<path d="M102.607 264.901H39V269.554H102.607V264.901Z" fill="#171921"/>
<path d="M102.607 257.922H39V262.575H102.607V257.922Z" fill="#171921"/>
<path d="M71.67 247.973V246.834L105.429 171H100.33L67.017 245.844V247.973H71.67Z" fill="#171921"/>
<path d="M102.607 250.893H39V255.546H102.607V250.893Z" fill="#171921"/>
<path d="M64.6905 247.973V245.349L97.806 171H92.658L59.988 244.359V247.973H64.6905Z" fill="#171921"/>
<path d="M57.6616 247.973V243.864L90.1335 171H84.9855L53.0085 242.874V247.973H57.6616Z" fill="#171921"/>
<path d="M50.682 247.973V242.379L82.461 171H77.313L45.9795 241.389V247.973H50.682Z" fill="#171921"/>
<path d="M43.653 247.973V240.894L74.7885 171H69.69L39 239.904V247.973H43.653Z" fill="#171921"/>
<path d="M170.186 344.5L166.586 351.875L163.111 344.5H156.886L163.586 356.85C163.036 357.525 162.461 357.825 161.586 357.825C161.086 357.825 160.511 357.725 159.786 357.525L158.411 361.775C159.586 362.25 160.736 362.475 161.811 362.475C164.711 362.475 167.186 360.8 168.861 357.675L175.886 344.5H170.186ZM188.703 344.5V351.85C188.053 352.125 187.228 352.25 186.278 352.25C184.378 352.25 183.453 351.25 183.453 349.125V344.5H177.653V349.775C177.653 354.45 180.378 356.925 185.528 356.925C186.503 356.925 187.528 356.75 188.703 356.4V362H194.503V344.5H188.703ZM212.119 362H218.219L210.569 344.5H204.769L197.119 362H203.119L204.294 358.95H210.944L212.119 362ZM205.919 354.7L207.619 350.3L209.319 354.7H205.919ZM229.39 362.4C232.815 362.4 235.515 361.15 237.24 358.9L233.515 355.575C232.49 356.875 231.265 357.625 229.69 357.625C227.24 357.625 225.59 355.925 225.59 353.25C225.59 350.575 227.24 348.875 229.69 348.875C231.265 348.875 232.49 349.625 233.515 350.925L237.24 347.6C235.515 345.35 232.815 344.1 229.39 344.1C223.765 344.1 219.64 347.875 219.64 353.25C219.64 358.625 223.765 362.4 229.39 362.4ZM254.801 344.5H238.751V349.075H243.876V362H249.676V349.075H254.801V344.5ZM269.096 344.5V350.7H263.646V344.5H257.746V362H263.646V355.55H269.096V362H274.996V344.5H269.096ZM279.108 362H284.683L290.683 352.925V362H296.483V344.5H290.933L284.908 353.6V344.5H279.108V362ZM318.016 344.5H311.866L308.141 351.025H306.341V344.5H300.441V362H306.341V355.675H307.991L311.341 362H317.991L312.816 353L318.016 344.5ZM328.972 362.4C334.672 362.4 338.847 358.55 338.847 353.25C338.847 347.95 334.672 344.1 328.972 344.1C323.272 344.1 319.097 347.95 319.097 353.25C319.097 358.55 323.272 362.4 328.972 362.4ZM328.972 357.625C326.797 357.625 325.047 355.975 325.047 353.25C325.047 350.525 326.797 348.875 328.972 348.875C331.147 348.875 332.897 350.525 332.897 353.25C332.897 355.975 331.147 357.625 328.972 357.625ZM355.421 352.825C356.846 352.05 357.671 350.75 357.671 349.075C357.671 346.175 355.171 344.5 350.846 344.5H341.971V362H351.321C355.896 362 358.446 360.025 358.446 356.925C358.446 354.9 357.346 353.525 355.421 352.825ZM347.771 348.625H350.271C351.271 348.625 351.721 349.1 351.721 349.95C351.721 350.8 351.271 351.225 350.271 351.225H347.771V348.625ZM351.046 357.875H347.771V355.125H351.046C352.021 355.125 352.496 355.575 352.496 356.475C352.496 357.375 352.021 357.875 351.046 357.875Z" fill="#171921"/>
<path d="M29.375 172.4V176.65L36.95 179.25L29.375 181.85V186.1L42.125 181.475V177.025L29.375 172.4Z" fill="#171921"/>
<path d="M481 0H173L481 308V0Z" fill="#F9DD47"/>
<path d="M446.09 97.082H433.119L433.119 111.455L438.463 111.649C442.929 111.844 446.09 112.402 446.09 114.514V115H454.119V109.756H450.681V100.093H454.119V94.8483H446.09V97.082ZM438.965 106.672L437.71 106.624V102.715H446.09L446.09 107.959C444.585 107.109 442.076 106.794 438.965 106.672Z" fill="#171921"/>
<path d="M446.215 86.3201H443.907L443.907 79.1334H439.642L439.642 86.3201H437.585L437.585 78.138L433.119 78.138L433.119 91.9528H450.681L450.681 77.8224L446.215 77.8224L446.215 86.3201Z" fill="#171921"/>
<path d="M433.119 63.5041H439.341L439.341 68.797H433.119L433.119 74.5268H450.681V68.797H444.208L444.208 63.5041H450.681V57.7742H433.119L433.119 63.5041Z" fill="#171921"/>
<path d="M438.513 44.6282L438.513 48.1487H433.119L433.119 53.7814H450.681V45.3566C450.681 40.8649 448.499 38 444.309 38C440.42 38 438.513 40.4765 438.513 44.6282ZM446.542 45.745V48.1487L442.653 48.1487V45.745C442.653 44.6039 443.079 43.7542 444.409 43.7542C445.764 43.7542 446.542 44.6039 446.542 45.745Z" fill="#171921"/>
<mask id="mask0" mask-type="alpha" maskUnits="userSpaceOnUse" x="173" y="0" width="308" height="308">
<path d="M481 0H173L481 308V0Z" fill="#F9DD47"/>
</mask>
<g mask="url(#mask0)">
<path d="M381 58.2158V61.591H413.387V58.2158H381Z" fill="#171921"/>
<path d="M381 48.0894V51.4645H413.387V48.1253L381 48.0894Z" fill="#171921"/>
<path d="M381 53.1528V56.528H413.387V53.1528H381Z" fill="#171921"/>
<path d="M381 43.0625V46.4377H413.387V43.0625H381Z" fill="#171921"/>
<path d="M413 64H410V252H413V64Z" fill="#171921"/>
<path d="M381 38V41.3752H413.387V38H381Z" fill="#171921"/>
<path d="M408 64H405V252H408V64Z" fill="#171921"/>
<path d="M403 64H400V252H403V64Z" fill="#171921"/>
<path d="M398 64H395V252H398V64Z" fill="#171921"/>
<path d="M393 64H390V252H393V64Z" fill="#171921"/>
</g>
</svg>
