<svg width="388" height="237" viewBox="0 0 388 237" fill="none" xmlns="http://www.w3.org/2000/svg">
<path d="M0 0H388V237H80.5L0 157.5V0Z" fill="white"/>
<path d="M199.728 171.5C185.719 171.5 172.651 163.679 162.85 149.423C153.247 135.464 148 116.951 148 97.25C148 77.5985 153.297 59.036 162.85 45.077C172.651 30.821 185.719 23 199.728 23C213.736 23 226.804 30.821 236.605 45.077C246.208 59.036 251.455 77.549 251.455 97.25C251.455 116.902 246.159 135.464 236.605 149.423C226.804 163.679 213.687 171.5 199.728 171.5ZM199.728 27.6035C173.79 27.6035 152.653 58.838 152.653 97.25C152.653 135.662 173.74 166.897 199.728 166.897C225.666 166.897 246.802 135.662 246.802 97.25C246.753 58.838 225.666 27.6035 199.728 27.6035Z" fill="#171921"/>
<path d="M199.728 164.619C188.095 164.619 176.611 157.392 168.196 144.819C159.682 132.098 154.979 115.218 154.979 97.2995C154.979 79.3805 159.682 62.501 168.196 49.7795C176.611 37.2065 188.095 29.9795 199.728 29.9795C211.36 29.9795 222.844 37.2065 231.259 49.7795C239.773 62.501 244.475 79.3805 244.475 97.2995C244.475 115.218 239.773 132.098 231.259 144.819C222.795 157.392 211.311 164.619 199.728 164.619ZM199.728 34.5335C178.047 34.5335 159.682 63.2435 159.682 97.2995C159.682 131.306 177.997 160.065 199.728 160.065C221.458 160.065 239.773 131.355 239.773 97.2995C239.723 63.2435 221.409 34.5335 199.728 34.5335Z" fill="#171921"/>
<path d="M199.728 157.69C190.273 157.69 180.72 151.304 173.542 140.167C166.117 128.633 162.009 113.387 162.009 97.25C162.009 81.113 166.117 65.8671 173.542 54.3336C180.72 43.1961 190.273 36.8105 199.728 36.8105C209.182 36.8105 218.736 43.1961 225.913 54.3336C233.338 65.8671 237.447 81.113 237.447 97.25C237.447 113.387 233.338 128.633 225.913 140.167C218.686 151.304 209.182 157.69 199.728 157.69ZM199.728 41.414C184.086 41.414 166.711 64.3325 166.711 97.25C166.711 130.168 184.135 153.086 199.728 153.086C215.37 153.086 232.744 130.168 232.744 97.25C232.744 64.3325 215.32 41.414 199.728 41.414Z" fill="#171921"/>
<path d="M199.727 150.809C192.55 150.809 184.778 145.117 178.888 135.563C172.552 125.267 169.037 111.655 169.037 97.2996C169.037 82.9446 172.552 69.3321 178.888 59.0361C184.778 49.4826 192.55 43.79 199.727 43.79C206.905 43.79 214.676 49.4826 220.567 59.0361C226.903 69.3321 230.417 82.9446 230.417 97.2996C230.417 111.655 226.903 125.267 220.567 135.563C214.676 145.067 206.905 150.809 199.727 150.809ZM199.727 48.2946C189.134 48.2946 173.74 67.352 173.74 97.25C173.74 127.099 189.134 146.206 199.727 146.206C210.32 146.206 225.715 127.148 225.715 97.25C225.715 67.4015 210.32 48.2946 199.727 48.2946Z" fill="#171921"/>
<path d="M199.728 143.879C190.323 143.879 176.067 125.267 176.067 97.25C176.067 69.2331 190.323 50.6211 199.728 50.6211C209.133 50.6211 223.388 69.2331 223.388 97.25C223.388 125.267 209.133 143.879 199.728 143.879ZM199.728 55.2246C194.233 55.2246 180.72 69.9756 180.72 97.25C180.72 124.574 194.184 139.276 199.728 139.276C205.222 139.276 218.735 124.525 218.735 97.25C218.686 69.9261 205.222 55.2246 199.728 55.2246Z" fill="#171921"/>
<path d="M312.728 171.5C298.719 171.5 285.651 163.679 275.85 149.423C266.247 135.464 261 116.951 261 97.25C261 77.5985 266.297 59.036 275.85 45.077C285.651 30.821 298.719 23 312.728 23C326.736 23 339.804 30.821 349.605 45.077C359.208 59.036 364.455 77.549 364.455 97.25C364.455 116.902 359.159 135.464 349.605 149.423C339.804 163.679 326.687 171.5 312.728 171.5ZM312.728 27.6035C286.79 27.6035 265.653 58.838 265.653 97.25C265.653 135.662 286.74 166.897 312.728 166.897C338.666 166.897 359.802 135.662 359.802 97.25C359.753 58.838 338.666 27.6035 312.728 27.6035Z" fill="#171921"/>
<path d="M312.728 164.619C301.095 164.619 289.611 157.392 281.196 144.819C272.682 132.098 267.979 115.218 267.979 97.2995C267.979 79.3805 272.682 62.501 281.196 49.7795C289.611 37.2065 301.095 29.9795 312.728 29.9795C324.36 29.9795 335.844 37.2065 344.259 49.7795C352.773 62.501 357.475 79.3805 357.475 97.2995C357.475 115.218 352.773 132.098 344.259 144.819C335.795 157.392 324.311 164.619 312.728 164.619ZM312.728 34.5335C291.047 34.5335 272.682 63.2435 272.682 97.2995C272.682 131.306 290.997 160.065 312.728 160.065C334.458 160.065 352.773 131.355 352.773 97.2995C352.723 63.2435 334.409 34.5335 312.728 34.5335Z" fill="#171921"/>
<path d="M312.728 157.69C303.273 157.69 293.72 151.304 286.542 140.167C279.117 128.633 275.009 113.387 275.009 97.25C275.009 81.113 279.117 65.8671 286.542 54.3336C293.72 43.1961 303.273 36.8105 312.728 36.8105C322.182 36.8105 331.736 43.1961 338.913 54.3336C346.338 65.8671 350.447 81.113 350.447 97.25C350.447 113.387 346.338 128.633 338.913 140.167C331.686 151.304 322.182 157.69 312.728 157.69ZM312.728 41.414C297.086 41.414 279.711 64.3325 279.711 97.25C279.711 130.168 297.135 153.086 312.728 153.086C328.37 153.086 345.744 130.168 345.744 97.25C345.744 64.3325 328.32 41.414 312.728 41.414Z" fill="#171921"/>
<path d="M312.727 150.809C305.55 150.809 297.778 145.117 291.888 135.563C285.552 125.267 282.037 111.655 282.037 97.2996C282.037 82.9446 285.552 69.3321 291.888 59.0361C297.778 49.4826 305.55 43.79 312.727 43.79C319.905 43.79 327.676 49.4826 333.567 59.0361C339.903 69.3321 343.417 82.9446 343.417 97.2996C343.417 111.655 339.903 125.267 333.567 135.563C327.676 145.067 319.905 150.809 312.727 150.809ZM312.727 48.2946C302.134 48.2946 286.74 67.352 286.74 97.25C286.74 127.099 302.134 146.206 312.727 146.206C323.32 146.206 338.715 127.148 338.715 97.25C338.715 67.4015 323.32 48.2946 312.727 48.2946Z" fill="#171921"/>
<path d="M312.728 143.879C303.323 143.879 289.067 125.267 289.067 97.25C289.067 69.2331 303.323 50.6211 312.728 50.6211C322.133 50.6211 336.388 69.2331 336.388 97.25C336.388 125.267 322.133 143.879 312.728 143.879ZM312.728 55.2246C307.233 55.2246 293.72 69.9756 293.72 97.25C293.72 124.574 307.184 139.276 312.728 139.276C318.222 139.276 331.735 124.525 331.735 97.25C331.686 69.9261 318.222 55.2246 312.728 55.2246Z" fill="#171921"/>
<path d="M137.505 79.3311H132.852V171.55H137.505V79.3311Z" fill="#171921"/>
<path d="M130.476 79.3311H125.823V171.55H130.476V79.3311Z" fill="#171921"/>
<path d="M123.497 79.3311H118.844V171.55H123.497V79.3311Z" fill="#171921"/>
<path d="M116.467 79.2817H111.814V171.5H116.467V79.2817Z" fill="#171921"/>
<path d="M109.488 79.2817H104.835V171.5H109.488V79.2817Z" fill="#171921"/>
<path d="M102.607 130.91H39V135.563H102.607V130.91Z" fill="#171921"/>
<path d="M102.607 123.931H39V128.584H102.607V123.931Z" fill="#171921"/>
<path d="M102.607 116.901H39V121.554H102.607V116.901Z" fill="#171921"/>
<path d="M102.607 109.922H39V114.575H102.607V109.922Z" fill="#171921"/>
<path d="M71.67 99.9725V98.834L105.429 23H100.33L67.017 97.844V99.9725H71.67Z" fill="#171921"/>
<path d="M102.607 102.893H39V107.546H102.607V102.893Z" fill="#171921"/>
<path d="M64.6905 99.9725V97.349L97.806 23H92.658L59.988 96.359V99.9725H64.6905Z" fill="#171921"/>
<path d="M57.6616 99.9725V95.864L90.1335 23H84.9855L53.0085 94.874V99.9725H57.6616Z" fill="#171921"/>
<path d="M50.682 99.9725V94.379L82.461 23H77.313L45.9795 93.389V99.9725H50.682Z" fill="#171921"/>
<path d="M43.653 99.9725V92.894L74.7885 23H69.69L39 91.904V99.9725H43.653Z" fill="#171921"/>
<path d="M170.186 196.5L166.586 203.875L163.111 196.5H156.886L163.586 208.85C163.036 209.525 162.461 209.825 161.586 209.825C161.086 209.825 160.511 209.725 159.786 209.525L158.411 213.775C159.586 214.25 160.736 214.475 161.811 214.475C164.711 214.475 167.186 212.8 168.861 209.675L175.886 196.5H170.186ZM188.703 196.5V203.85C188.053 204.125 187.228 204.25 186.278 204.25C184.378 204.25 183.453 203.25 183.453 201.125V196.5H177.653V201.775C177.653 206.45 180.378 208.925 185.528 208.925C186.503 208.925 187.528 208.75 188.703 208.4V214H194.503V196.5H188.703ZM212.119 214H218.219L210.569 196.5H204.769L197.119 214H203.119L204.294 210.95H210.944L212.119 214ZM205.919 206.7L207.619 202.3L209.319 206.7H205.919ZM229.39 214.4C232.815 214.4 235.515 213.15 237.24 210.9L233.515 207.575C232.49 208.875 231.265 209.625 229.69 209.625C227.24 209.625 225.59 207.925 225.59 205.25C225.59 202.575 227.24 200.875 229.69 200.875C231.265 200.875 232.49 201.625 233.515 202.925L237.24 199.6C235.515 197.35 232.815 196.1 229.39 196.1C223.765 196.1 219.64 199.875 219.64 205.25C219.64 210.625 223.765 214.4 229.39 214.4ZM254.801 196.5H238.751V201.075H243.876V214H249.676V201.075H254.801V196.5ZM269.096 196.5V202.7H263.646V196.5H257.746V214H263.646V207.55H269.096V214H274.996V196.5H269.096ZM279.108 214H284.683L290.683 204.925V214H296.483V196.5H290.933L284.908 205.6V196.5H279.108V214ZM318.016 196.5H311.866L308.141 203.025H306.341V196.5H300.441V214H306.341V207.675H307.991L311.341 214H317.991L312.816 205L318.016 196.5ZM328.972 214.4C334.672 214.4 338.847 210.55 338.847 205.25C338.847 199.95 334.672 196.1 328.972 196.1C323.272 196.1 319.097 199.95 319.097 205.25C319.097 210.55 323.272 214.4 328.972 214.4ZM328.972 209.625C326.797 209.625 325.047 207.975 325.047 205.25C325.047 202.525 326.797 200.875 328.972 200.875C331.147 200.875 332.897 202.525 332.897 205.25C332.897 207.975 331.147 209.625 328.972 209.625ZM355.421 204.825C356.846 204.05 357.671 202.75 357.671 201.075C357.671 198.175 355.171 196.5 350.846 196.5H341.971V214H351.321C355.896 214 358.446 212.025 358.446 208.925C358.446 206.9 357.346 205.525 355.421 204.825ZM347.771 200.625H350.271C351.271 200.625 351.721 201.1 351.721 201.95C351.721 202.8 351.271 203.225 350.271 203.225H347.771V200.625ZM351.046 209.875H347.771V207.125H351.046C352.021 207.125 352.496 207.575 352.496 208.475C352.496 209.375 352.021 209.875 351.046 209.875Z" fill="#171921"/>
<path d="M29.375 24.4V28.65L36.95 31.25L29.375 33.85V38.1L42.125 33.475V29.025L29.375 24.4Z" fill="#171921"/>
</svg>
