<svg width="353" height="326" viewBox="0 0 353 326" fill="none" xmlns="http://www.w3.org/2000/svg">
<rect x="79" width="274" height="326" fill="#F9DD47"/>
<path d="M184.177 114.556C188.792 111.054 191.965 106.151 193.077 100.753C193.448 99.0227 193.613 97.251 193.613 95.4793C193.613 88.7634 190.935 82.4594 186.114 77.68C181.334 72.9829 175.113 70.3872 168.562 70.3872C168.438 70.3872 168.356 70.3872 168.232 70.3872C154.553 70.552 143.428 81.8002 143.428 95.4793H147.301C147.301 83.9015 156.737 74.3838 168.315 74.219C173.959 74.1366 179.357 76.3203 183.436 80.3993C187.515 84.4371 189.781 89.7934 189.781 95.4381C189.781 96.9626 189.616 98.4459 189.328 99.9291C188.421 104.379 185.784 108.499 181.911 111.425L135.064 147.106H141.451L184.177 114.556Z" fill="#171921"/>
<path d="M191.223 123.744C198.062 118.512 202.759 111.178 204.449 103.061C204.943 100.589 205.232 97.993 205.232 95.4385C205.232 85.6324 201.359 76.3619 194.313 69.3987C187.35 62.5179 178.244 58.7686 168.562 58.7686C168.438 58.7686 168.273 58.7686 168.15 58.7686C148.125 58.9746 131.851 75.4554 131.851 95.4797H135.724C135.724 77.5567 150.268 62.8476 168.191 62.6416C176.967 62.5592 185.29 65.9377 191.594 72.1593C197.898 78.3808 201.359 86.6624 201.4 95.4385C201.4 97.7458 201.153 100.053 200.699 102.278C199.216 109.488 195.055 115.998 188.957 120.654L154.223 147.106H160.527L191.223 123.744Z" fill="#171921"/>
<path d="M180.675 109.941C184.177 107.263 186.567 103.596 187.391 99.5584C187.68 98.24 187.803 96.8391 187.803 95.4794C187.803 90.3291 185.743 85.4673 182.035 81.8003C178.285 78.0921 173.424 76.1144 168.273 76.1968C157.726 76.3204 149.197 84.9729 149.197 95.5206H153.07C153.07 87.0742 159.909 80.1522 168.356 80.0698C172.435 80.0286 176.349 81.5943 179.357 84.5608C182.323 87.4862 183.971 91.4004 183.971 95.4794C183.971 96.5919 183.848 97.7043 183.642 98.7756C182.983 101.866 181.128 104.75 178.368 106.851L126.041 146.735V147.147H131.851L180.675 109.941Z" fill="#171921"/>
<path d="M210.094 104.255C210.67 101.371 211 98.4048 211 95.4794C211 84.1076 206.509 73.3951 198.351 65.3194C190.317 57.3674 179.728 53 168.521 53C168.356 53 168.191 53 168.026 53C156.778 53.1236 146.23 57.6146 138.278 65.6079C130.367 73.6011 126 84.2312 126 95.4794H129.873C129.873 85.2201 133.828 75.5788 141.039 68.3272C148.249 61.0344 157.849 56.9966 168.067 56.873C178.409 56.7494 188.215 60.746 195.632 68.08C203.048 75.414 207.127 85.1377 207.127 95.4794C207.127 98.1576 206.839 100.877 206.303 103.473C204.531 112.043 199.587 119.789 192.377 125.31L163.7 147.147H170.086L194.725 128.359C202.677 122.302 208.157 113.732 210.094 104.255Z" fill="#171921"/>
<path d="M187.721 119.171C193.448 114.803 197.362 108.664 198.763 101.948C199.216 99.8468 199.422 97.6631 199.422 95.5206C199.422 87.2389 196.126 79.4517 190.193 73.601C184.26 67.7503 176.39 64.5366 168.15 64.6602C151.298 64.8662 137.578 78.7101 137.578 95.5618H141.451C141.451 80.8114 153.441 68.698 168.191 68.5332C175.401 68.4508 182.282 71.2525 187.474 76.3616C192.665 81.5119 195.549 88.3102 195.549 95.5206C195.549 97.4159 195.343 99.3524 194.972 101.165C193.777 107.016 190.358 112.331 185.372 116.122L144.582 147.188H150.968L187.721 119.171Z" fill="#171921"/>
<path d="M207.58 166.965H126V170.838H207.58V166.965Z" fill="#171921"/>
<path d="M207.58 155.84H126V159.219H207.58V155.84Z" fill="#171921"/>
<path d="M207.58 172.733H126V176.606H207.58V172.733Z" fill="#171921"/>
<path d="M207.58 161.156H126V165.029H207.58V161.156Z" fill="#171921"/>
<path d="M207.58 149.578H126V153.451H207.58V149.578Z" fill="#171921"/>
<path d="M207.58 155.346H126V155.841H207.58V155.346Z" fill="#171921"/>
<path d="M263.957 177C252.259 177 241.347 170.469 233.163 158.565C225.145 146.909 220.763 131.451 220.763 115C220.763 98.5907 225.186 83.0907 233.163 71.4347C241.347 59.5307 252.259 53 263.957 53C275.654 53 286.566 59.5307 294.75 71.4347C302.769 83.0907 307.15 98.5493 307.15 115C307.15 131.409 302.727 146.909 294.75 158.565C286.566 170.469 275.613 177 263.957 177ZM263.957 56.844C242.298 56.844 224.649 82.9253 224.649 115C224.649 147.075 242.257 173.156 263.957 173.156C285.615 173.156 303.265 147.075 303.265 115C303.223 82.9253 285.615 56.844 263.957 56.844Z" fill="#171921"/>
<path d="M263.957 171.255C254.243 171.255 244.654 165.22 237.627 154.721C230.518 144.099 226.591 130.004 226.591 115.041C226.591 100.079 230.518 85.9841 237.627 75.3615C244.654 64.8628 254.243 58.8281 263.957 58.8281C273.67 58.8281 283.259 64.8628 290.286 75.3615C297.395 85.9841 301.322 100.079 301.322 115.041C301.322 130.004 297.395 144.099 290.286 154.721C283.218 165.22 273.629 171.255 263.957 171.255ZM263.957 62.6308C245.853 62.6308 230.518 86.6041 230.518 115.041C230.518 143.437 245.811 167.452 263.957 167.452C282.102 167.452 297.395 143.479 297.395 115.041C297.354 86.6041 282.061 62.6308 263.957 62.6308Z" fill="#171921"/>
<path d="M263.957 165.468C256.062 165.468 248.085 160.136 242.091 150.836C235.891 141.206 232.461 128.475 232.461 115C232.461 101.526 235.891 88.7949 242.091 79.1642C248.085 69.8642 256.062 64.5322 263.957 64.5322C271.851 64.5322 279.829 69.8642 285.822 79.1642C292.022 88.7949 295.453 101.526 295.453 115C295.453 128.475 292.022 141.206 285.822 150.836C279.787 160.136 271.851 165.468 263.957 165.468ZM263.957 68.3762C250.895 68.3762 236.387 87.5135 236.387 115C236.387 142.487 250.937 161.624 263.957 161.624C277.018 161.624 291.526 142.487 291.526 115C291.526 87.5135 276.977 68.3762 263.957 68.3762Z" fill="#171921"/>
<path d="M263.957 159.723C257.963 159.723 251.474 154.97 246.555 146.992C241.265 138.395 238.33 127.028 238.33 115.042C238.33 103.055 241.265 91.6884 246.555 83.091C251.474 75.1137 257.963 70.3604 263.957 70.3604C269.95 70.3604 276.439 75.1137 281.358 83.091C286.649 91.6884 289.583 103.055 289.583 115.042C289.583 127.028 286.649 138.395 281.358 146.992C276.439 154.928 269.95 159.723 263.957 159.723ZM263.957 74.1217C255.111 74.1217 242.257 90.035 242.257 115C242.257 139.924 255.111 155.879 263.957 155.879C272.802 155.879 285.657 139.966 285.657 115C285.657 90.0763 272.802 74.1217 263.957 74.1217Z" fill="#171921"/>
<path d="M263.957 153.936C256.103 153.936 244.199 138.395 244.199 115C244.199 91.6058 256.103 76.0645 263.957 76.0645C271.81 76.0645 283.714 91.6058 283.714 115C283.714 138.395 271.81 153.936 263.957 153.936ZM263.957 79.9084C259.369 79.9084 248.085 92.2258 248.085 115C248.085 137.816 259.327 150.092 263.957 150.092C268.545 150.092 279.829 137.775 279.829 115C279.787 92.1844 268.545 79.9084 263.957 79.9084Z" fill="#171921"/>
<path d="M101.925 54.16V60.11L112.53 63.75L101.925 67.39V73.34L119.775 66.865V60.635L101.925 54.16Z" fill="#171921"/>
<path d="M144.66 215.849C146.151 216.25 147.286 216.94 148.065 217.919C148.844 218.876 149.233 220.078 149.233 221.524C149.233 223.571 148.476 225.163 146.963 226.298C145.45 227.433 143.258 228 140.387 228H129.305V204.633H139.753C142.379 204.633 144.426 205.156 145.895 206.202C147.364 207.248 148.098 208.728 148.098 210.642C148.098 211.866 147.798 212.923 147.197 213.813C146.618 214.703 145.773 215.382 144.66 215.849ZM133.577 214.614H139.386C140.788 214.614 141.856 214.336 142.59 213.78C143.325 213.223 143.692 212.4 143.692 211.31C143.692 210.219 143.325 209.396 142.59 208.839C141.856 208.261 140.788 207.972 139.386 207.972H133.577V214.614ZM140.254 224.662C143.325 224.662 144.86 223.505 144.86 221.19C144.86 218.92 143.325 217.785 140.254 217.785H133.577V224.662H140.254ZM157.21 204.633H161.483V221.224L174.034 204.633H178.073V228H173.8V211.443L161.249 228H157.21V204.633ZM210.562 224.328V232.974H206.557V228H188.631V232.974H184.592L184.626 224.328H185.627C187.096 224.261 188.119 223.182 188.698 221.09C189.299 218.976 189.666 215.961 189.8 212.044L190.067 204.633H207.191V224.328H210.562ZM193.605 212.445C193.494 215.471 193.249 217.997 192.871 220.022C192.492 222.025 191.891 223.46 191.068 224.328H202.918V208.305H193.772L193.605 212.445ZM228.464 228.334C226.083 228.334 223.935 227.822 222.021 226.798C220.108 225.752 218.605 224.317 217.515 222.492C216.425 220.645 215.879 218.587 215.879 216.317C215.879 214.047 216.425 211.999 217.515 210.175C218.605 208.328 220.108 206.892 222.021 205.869C223.935 204.823 226.083 204.3 228.464 204.3C230.845 204.3 232.993 204.823 234.906 205.869C236.82 206.892 238.322 208.316 239.413 210.141C240.503 211.966 241.048 214.025 241.048 216.317C241.048 218.609 240.503 220.667 239.413 222.492C238.322 224.317 236.82 225.752 234.906 226.798C232.993 227.822 230.845 228.334 228.464 228.334ZM228.464 224.528C230.022 224.528 231.424 224.183 232.67 223.494C233.916 222.781 234.895 221.802 235.607 220.556C236.319 219.288 236.676 217.874 236.676 216.317C236.676 214.759 236.319 213.357 235.607 212.111C234.895 210.842 233.916 209.863 232.67 209.173C231.424 208.461 230.022 208.105 228.464 208.105C226.906 208.105 225.504 208.461 224.258 209.173C223.012 209.863 222.032 210.842 221.32 212.111C220.608 213.357 220.252 214.759 220.252 216.317C220.252 217.874 220.608 219.288 221.32 220.556C222.032 221.802 223.012 222.781 224.258 223.494C225.504 224.183 226.906 224.528 228.464 224.528ZM264.235 215.849C265.726 216.25 266.861 216.94 267.639 217.919C268.418 218.876 268.808 220.078 268.808 221.524C268.808 223.571 268.051 225.163 266.538 226.298C265.025 227.433 262.833 228 259.962 228H248.879V204.633H259.328C261.954 204.633 264.001 205.156 265.47 206.202C266.938 207.248 267.673 208.728 267.673 210.642C267.673 211.866 267.372 212.923 266.772 213.813C266.193 214.703 265.347 215.382 264.235 215.849ZM253.152 214.614H258.96C260.362 214.614 261.431 214.336 262.165 213.78C262.899 213.223 263.267 212.4 263.267 211.31C263.267 210.219 262.899 209.396 262.165 208.839C261.431 208.261 260.362 207.972 258.96 207.972H253.152V214.614ZM259.828 224.662C262.899 224.662 264.435 223.505 264.435 221.19C264.435 218.92 262.899 217.785 259.828 217.785H253.152V224.662H259.828ZM140.02 273.334C137.661 273.334 135.525 272.822 133.611 271.798C131.719 270.752 130.228 269.317 129.138 267.492C128.07 265.667 127.536 263.609 127.536 261.317C127.536 259.025 128.081 256.966 129.171 255.141C130.262 253.316 131.753 251.892 133.644 250.869C135.558 249.823 137.694 249.3 140.053 249.3C141.967 249.3 143.714 249.633 145.294 250.301C146.874 250.969 148.209 251.937 149.3 253.205L146.496 255.842C144.805 254.017 142.724 253.105 140.254 253.105C138.651 253.105 137.216 253.461 135.947 254.173C134.679 254.863 133.689 255.831 132.977 257.077C132.264 258.324 131.908 259.737 131.908 261.317C131.908 262.897 132.264 264.31 132.977 265.556C133.689 266.802 134.679 267.781 135.947 268.494C137.216 269.183 138.651 269.528 140.254 269.528C142.724 269.528 144.805 268.605 146.496 266.758L149.3 269.428C148.209 270.697 146.863 271.665 145.261 272.332C143.681 273 141.934 273.334 140.02 273.334ZM177.025 249.633V273H172.752V253.305H160.635V273H156.362V249.633H177.025ZM197.429 273.334C195.048 273.334 192.901 272.822 190.987 271.798C189.073 270.752 187.571 269.317 186.48 267.492C185.39 265.645 184.845 263.587 184.845 261.317C184.845 259.047 185.39 256.999 186.48 255.175C187.571 253.328 189.073 251.892 190.987 250.869C192.901 249.823 195.048 249.3 197.429 249.3C199.81 249.3 201.958 249.823 203.872 250.869C205.786 251.892 207.288 253.316 208.378 255.141C209.469 256.966 210.014 259.025 210.014 261.317C210.014 263.609 209.469 265.667 208.378 267.492C207.288 269.317 205.786 270.752 203.872 271.798C201.958 272.822 199.81 273.334 197.429 273.334ZM197.429 269.528C198.987 269.528 200.389 269.183 201.635 268.494C202.881 267.781 203.861 266.802 204.573 265.556C205.285 264.288 205.641 262.874 205.641 261.317C205.641 259.759 205.285 258.357 204.573 257.111C203.861 255.842 202.881 254.863 201.635 254.173C200.389 253.461 198.987 253.105 197.429 253.105C195.871 253.105 194.469 253.461 193.223 254.173C191.977 254.863 190.998 255.842 190.286 257.111C189.574 258.357 189.218 259.759 189.218 261.317C189.218 262.874 189.574 264.288 190.286 265.556C190.998 266.802 191.977 267.781 193.223 268.494C194.469 269.183 195.871 269.528 197.429 269.528ZM227.425 249.633C229.45 249.633 231.208 249.967 232.699 250.635C234.213 251.302 235.37 252.259 236.171 253.506C236.972 254.752 237.373 256.232 237.373 257.945C237.373 259.637 236.972 261.116 236.171 262.385C235.37 263.631 234.213 264.588 232.699 265.256C231.208 265.923 229.45 266.257 227.425 266.257H222.151V273H217.811V249.633H227.425ZM227.225 262.585C229.116 262.585 230.552 262.185 231.531 261.383C232.51 260.582 233 259.436 233 257.945C233 256.454 232.51 255.308 231.531 254.507C230.552 253.706 229.116 253.305 227.225 253.305H222.151V262.585H227.225ZM260.751 253.305H253.006V273H248.7V253.305H240.989V249.633H260.751V253.305ZM281.808 267.592H270.125L267.822 273H263.349L273.864 249.633H278.137L288.685 273H284.145L281.808 267.592ZM280.373 264.187L275.967 253.973L271.594 264.187H280.373Z" fill="#171921"/>
<path d="M144.66 215.849L143.963 214.19L139.118 216.224L144.193 217.588L144.66 215.849ZM148.065 217.919L146.656 219.04L146.662 219.047L146.669 219.055L148.065 217.919ZM129.305 228H127.505V229.8H129.305V228ZM129.305 204.633V202.833H127.505V204.633H129.305ZM145.895 206.202L146.939 204.736L146.939 204.736L145.895 206.202ZM147.197 213.813L145.705 212.806L145.696 212.819L145.688 212.832L147.197 213.813ZM133.577 214.614H131.777V216.414H133.577V214.614ZM142.59 213.78L141.503 212.345L141.503 212.345L142.59 213.78ZM142.59 208.839L141.476 210.253L141.49 210.264L141.503 210.274L142.59 208.839ZM133.577 207.972V206.172H131.777V207.972H133.577ZM133.577 217.785V215.985H131.777V217.785H133.577ZM133.577 224.662H131.777V226.462H133.577V224.662ZM144.193 217.588C145.4 217.912 146.168 218.426 146.656 219.04L149.473 216.798C148.403 215.453 146.901 214.588 145.127 214.111L144.193 217.588ZM146.669 219.055C147.143 219.638 147.433 220.417 147.433 221.524H151.033C151.033 219.738 150.544 218.114 149.461 216.783L146.669 219.055ZM147.433 221.524C147.433 223.059 146.902 224.094 145.883 224.858L148.043 227.738C150.051 226.231 151.033 224.084 151.033 221.524H147.433ZM145.883 224.858C144.806 225.666 143.059 226.2 140.387 226.2V229.8C143.457 229.8 146.094 229.199 148.043 227.738L145.883 224.858ZM140.387 226.2H129.305V229.8H140.387V226.2ZM131.105 228V204.633H127.505V228H131.105ZM129.305 206.433H139.753V202.833H129.305V206.433ZM139.753 206.433C142.168 206.433 143.797 206.918 144.851 207.669L146.939 204.736C145.055 203.394 142.59 202.833 139.753 202.833V206.433ZM144.851 207.669C145.812 208.353 146.298 209.268 146.298 210.642H149.898C149.898 208.188 148.915 206.143 146.939 204.736L144.851 207.669ZM146.298 210.642C146.298 211.559 146.078 212.254 145.705 212.806L148.689 214.82C149.517 213.592 149.898 212.173 149.898 210.642H146.298ZM145.688 212.832C145.332 213.38 144.79 213.842 143.963 214.19L145.357 217.509C146.755 216.922 147.905 216.027 148.706 214.794L145.688 212.832ZM133.577 216.414H139.386V212.814H133.577V216.414ZM139.386 216.414C140.986 216.414 142.505 216.103 143.677 215.215L141.503 212.345C141.207 212.569 140.589 212.814 139.386 212.814V216.414ZM143.677 215.215C144.946 214.253 145.492 212.847 145.492 211.31H141.892C141.892 211.953 141.703 212.194 141.503 212.345L143.677 215.215ZM145.492 211.31C145.492 209.772 144.946 208.366 143.677 207.405L141.503 210.274C141.703 210.426 141.892 210.666 141.892 211.31H145.492ZM143.704 207.426C142.528 206.499 140.999 206.172 139.386 206.172V209.772C140.577 209.772 141.183 210.023 141.476 210.253L143.704 207.426ZM139.386 206.172H133.577V209.772H139.386V206.172ZM131.777 207.972V214.614H135.377V207.972H131.777ZM140.254 226.462C141.964 226.462 143.575 226.149 144.792 225.232C146.105 224.242 146.66 222.783 146.66 221.19H143.06C143.06 221.912 142.848 222.189 142.625 222.357C142.307 222.596 141.615 222.862 140.254 222.862V226.462ZM146.66 221.19C146.66 219.606 146.095 218.162 144.778 217.189C143.563 216.291 141.958 215.985 140.254 215.985V219.585C141.62 219.585 142.318 219.847 142.639 220.084C142.857 220.246 143.06 220.505 143.06 221.19H146.66ZM140.254 215.985H133.577V219.585H140.254V215.985ZM131.777 217.785V224.662H135.377V217.785H131.777ZM133.577 226.462H140.254V222.862H133.577V226.462ZM157.21 204.633V202.833H155.41V204.633H157.21ZM161.483 204.633H163.283V202.833H161.483V204.633ZM161.483 221.224H159.683V226.586L162.918 222.31L161.483 221.224ZM174.034 204.633V202.833H173.138L172.598 203.547L174.034 204.633ZM178.073 204.633H179.873V202.833H178.073V204.633ZM178.073 228V229.8H179.873V228H178.073ZM173.8 228H172V229.8H173.8V228ZM173.8 211.443H175.6V206.089L172.366 210.356L173.8 211.443ZM161.249 228V229.8H162.143L162.683 229.087L161.249 228ZM157.21 228H155.41V229.8H157.21V228ZM157.21 206.433H161.483V202.833H157.21V206.433ZM159.683 204.633V221.224H163.283V204.633H159.683ZM162.918 222.31L175.469 205.719L172.598 203.547L160.047 220.138L162.918 222.31ZM174.034 206.433H178.073V202.833H174.034V206.433ZM176.273 204.633V228H179.873V204.633H176.273ZM178.073 226.2H173.8V229.8H178.073V226.2ZM175.6 228V211.443H172V228H175.6ZM172.366 210.356L159.815 226.913L162.683 229.087L175.235 212.531L172.366 210.356ZM161.249 226.2H157.21V229.8H161.249V226.2ZM159.01 228V204.633H155.41V228H159.01ZM210.562 224.328H212.362V222.528H210.562V224.328ZM210.562 232.974V234.774H212.362V232.974H210.562ZM206.557 232.974H204.757V234.774H206.557V232.974ZM206.557 228H208.357V226.2H206.557V228ZM188.631 228V226.2H186.831V228H188.631ZM188.631 232.974V234.774H190.431V232.974H188.631ZM184.592 232.974L182.792 232.967L182.785 234.774H184.592V232.974ZM184.626 224.328V222.528H182.833L182.826 224.321L184.626 224.328ZM185.627 224.328V226.128H185.668L185.709 226.126L185.627 224.328ZM188.698 221.09L186.967 220.598L186.963 220.61L188.698 221.09ZM189.8 212.044L188.001 211.979L188.001 211.983L189.8 212.044ZM190.067 204.633V202.833H188.33L188.268 204.569L190.067 204.633ZM207.191 204.633H208.991V202.833H207.191V204.633ZM207.191 224.328H205.391V226.128H207.191V224.328ZM193.605 212.445L191.806 212.372L191.806 212.378L193.605 212.445ZM192.871 220.022L194.639 220.356L194.64 220.353L192.871 220.022ZM191.068 224.328L189.762 223.089L186.879 226.128H191.068V224.328ZM202.918 224.328V226.128H204.718V224.328H202.918ZM202.918 208.305H204.718V206.505H202.918V208.305ZM193.772 208.305V206.505H192.043L191.973 208.233L193.772 208.305ZM208.762 224.328V232.974H212.362V224.328H208.762ZM210.562 231.174H206.557V234.774H210.562V231.174ZM208.357 232.974V228H204.757V232.974H208.357ZM206.557 226.2H188.631V229.8H206.557V226.2ZM186.831 228V232.974H190.431V228H186.831ZM188.631 231.174H184.592V234.774H188.631V231.174ZM186.392 232.981L186.426 224.335L182.826 224.321L182.792 232.967L186.392 232.981ZM184.626 226.128H185.627V222.528H184.626V226.128ZM185.709 226.126C186.914 226.071 187.974 225.58 188.802 224.707C189.589 223.878 190.099 222.779 190.433 221.57L186.963 220.61C186.719 221.493 186.427 221.98 186.19 222.23C185.995 222.436 185.808 222.518 185.545 222.53L185.709 226.126ZM190.429 221.582C191.09 219.259 191.463 216.073 191.599 212.105L188.001 211.983C187.869 215.848 187.508 218.693 186.967 220.598L190.429 221.582ZM191.598 212.109L191.865 204.698L188.268 204.569L188.001 211.979L191.598 212.109ZM190.067 206.433H207.191V202.833H190.067V206.433ZM205.391 204.633V224.328H208.991V204.633H205.391ZM207.191 226.128H210.562V222.528H207.191V226.128ZM191.806 212.378C191.697 215.353 191.458 217.784 191.101 219.691L194.64 220.353C195.04 218.21 195.291 215.589 195.404 212.511L191.806 212.378ZM191.102 219.688C190.748 221.563 190.233 222.593 189.762 223.089L192.374 225.567C193.55 224.328 194.237 222.487 194.639 220.356L191.102 219.688ZM191.068 226.128H202.918V222.528H191.068V226.128ZM204.718 224.328V208.305H201.118V224.328H204.718ZM202.918 206.505H193.772V210.105H202.918V206.505ZM191.973 208.233L191.806 212.372L195.404 212.517L195.57 208.378L191.973 208.233ZM222.021 226.798L221.158 228.378L221.165 228.382L221.172 228.386L222.021 226.798ZM217.515 222.492L215.965 223.407L215.97 223.415L217.515 222.492ZM217.515 210.175L219.06 211.098L219.065 211.09L217.515 210.175ZM222.021 205.869L222.87 207.456L222.877 207.452L222.885 207.448L222.021 205.869ZM234.906 205.869L234.043 207.448L234.05 207.452L234.057 207.456L234.906 205.869ZM239.413 210.141L240.958 209.218L240.958 209.218L239.413 210.141ZM239.413 222.492L240.958 223.415L240.958 223.415L239.413 222.492ZM234.906 226.798L235.755 228.386L235.762 228.382L235.77 228.378L234.906 226.798ZM232.67 223.494L233.542 225.068L233.552 225.062L233.563 225.056L232.67 223.494ZM235.607 220.556L237.17 221.449L237.177 221.437L235.607 220.556ZM235.607 212.111L234.038 212.992L234.044 213.004L235.607 212.111ZM232.67 209.173L231.777 210.736L231.787 210.742L231.798 210.748L232.67 209.173ZM224.258 209.173L225.13 210.748L225.14 210.742L225.151 210.736L224.258 209.173ZM221.32 212.111L222.883 213.004L222.89 212.992L221.32 212.111ZM221.32 220.556L219.751 221.437L219.758 221.449L221.32 220.556ZM224.258 223.494L223.365 225.056L223.375 225.062L223.386 225.068L224.258 223.494ZM228.464 226.534C226.349 226.534 224.498 226.082 222.87 225.211L221.172 228.386C223.372 229.562 225.816 230.134 228.464 230.134V226.534ZM222.885 225.219C221.245 224.323 219.981 223.111 219.06 221.569L215.97 223.415C217.229 225.523 218.97 227.182 221.158 228.378L222.885 225.219ZM219.065 221.577C218.148 220.024 217.679 218.284 217.679 216.317H214.079C214.079 218.889 214.701 221.267 215.965 223.407L219.065 221.577ZM217.679 216.317C217.679 214.349 218.148 212.625 219.06 211.098L215.97 209.251C214.701 211.374 214.079 213.745 214.079 216.317H217.679ZM219.065 211.09C219.986 209.53 221.244 208.326 222.87 207.456L221.172 204.281C218.971 205.459 217.225 207.125 215.965 209.26L219.065 211.09ZM222.885 207.448C224.51 206.56 226.356 206.1 228.464 206.1V202.5C225.809 202.5 223.361 203.085 221.158 204.289L222.885 207.448ZM228.464 206.1C230.572 206.1 232.418 206.56 234.043 207.448L235.77 204.289C233.567 203.085 231.118 202.5 228.464 202.5V206.1ZM234.057 207.456C235.69 208.329 236.948 209.526 237.868 211.065L240.958 209.218C239.696 207.107 237.951 205.456 235.755 204.281L234.057 207.456ZM237.868 211.065C238.778 212.589 239.248 214.323 239.248 216.317H242.848C242.848 213.726 242.228 211.344 240.958 209.218L237.868 211.065ZM239.248 216.317C239.248 218.31 238.778 220.045 237.868 221.569L240.958 223.415C242.228 221.29 242.848 218.908 242.848 216.317H239.248ZM237.868 221.569C236.946 223.111 235.683 224.323 234.043 225.219L235.77 228.378C237.957 227.182 239.698 225.523 240.958 223.415L237.868 221.569ZM234.057 225.211C232.429 226.082 230.578 226.534 228.464 226.534V230.134C231.112 230.134 233.556 229.562 235.755 228.386L234.057 225.211ZM228.464 226.328C230.297 226.328 232.004 225.92 233.542 225.068L231.798 221.919C230.843 222.447 229.746 222.728 228.464 222.728V226.328ZM233.563 225.056C235.088 224.185 236.299 222.974 237.17 221.449L234.044 219.663C233.492 220.63 232.744 221.378 231.777 221.931L233.563 225.056ZM237.177 221.437C238.051 219.881 238.476 218.161 238.476 216.317H234.876C234.876 217.588 234.588 218.695 234.038 219.675L237.177 221.437ZM238.476 216.317C238.476 214.473 238.051 212.759 237.17 211.218L234.044 213.004C234.588 213.955 234.876 215.045 234.876 216.317H238.476ZM237.177 211.23C236.305 209.676 235.087 208.454 233.542 207.598L231.798 210.748C232.745 211.272 233.486 212.008 234.038 212.992L237.177 211.23ZM233.563 207.61C232.022 206.73 230.307 206.305 228.464 206.305V209.905C229.736 209.905 230.825 210.192 231.777 210.736L233.563 207.61ZM228.464 206.305C226.62 206.305 224.906 206.73 223.365 207.61L225.151 210.736C226.102 210.192 227.192 209.905 228.464 209.905V206.305ZM223.386 207.598C221.841 208.454 220.623 209.676 219.751 211.23L222.89 212.992C223.442 212.008 224.182 211.272 225.13 210.748L223.386 207.598ZM219.758 211.218C218.877 212.759 218.452 214.473 218.452 216.317H222.052C222.052 215.045 222.34 213.955 222.883 213.004L219.758 211.218ZM218.452 216.317C218.452 218.161 218.877 219.881 219.751 221.437L222.89 219.675C222.34 218.695 222.052 217.588 222.052 216.317H218.452ZM219.758 221.449C220.629 222.974 221.84 224.185 223.365 225.056L225.151 221.931C224.184 221.378 223.436 220.63 222.883 219.663L219.758 221.449ZM223.386 225.068C224.924 225.92 226.63 226.328 228.464 226.328V222.728C227.182 222.728 226.085 222.447 225.13 221.919L223.386 225.068ZM264.235 215.849L263.538 214.19L258.693 216.224L263.768 217.588L264.235 215.849ZM267.639 217.919L266.231 219.04L266.237 219.047L266.243 219.055L267.639 217.919ZM248.879 228H247.079V229.8H248.879V228ZM248.879 204.633V202.833H247.079V204.633H248.879ZM265.47 206.202L266.514 204.736L266.514 204.736L265.47 206.202ZM266.772 213.813L265.28 212.806L265.271 212.819L265.262 212.832L266.772 213.813ZM253.152 214.614H251.352V216.414H253.152V214.614ZM262.165 213.78L261.078 212.345L261.078 212.345L262.165 213.78ZM262.165 208.839L261.051 210.253L261.064 210.264L261.078 210.274L262.165 208.839ZM253.152 207.972V206.172H251.352V207.972H253.152ZM253.152 217.785V215.985H251.352V217.785H253.152ZM253.152 224.662H251.352V226.462H253.152V224.662ZM263.768 217.588C264.975 217.912 265.743 218.426 266.231 219.04L269.048 216.798C267.978 215.453 266.476 214.588 264.702 214.111L263.768 217.588ZM266.243 219.055C266.717 219.638 267.008 220.417 267.008 221.524H270.608C270.608 219.738 270.119 218.114 269.035 216.783L266.243 219.055ZM267.008 221.524C267.008 223.059 266.476 224.094 265.458 224.858L267.618 227.738C269.626 226.231 270.608 224.084 270.608 221.524H267.008ZM265.458 224.858C264.38 225.666 262.634 226.2 259.962 226.2V229.8C263.031 229.8 265.669 229.199 267.618 227.738L265.458 224.858ZM259.962 226.2H248.879V229.8H259.962V226.2ZM250.679 228V204.633H247.079V228H250.679ZM248.879 206.433H259.328V202.833H248.879V206.433ZM259.328 206.433C261.743 206.433 263.372 206.918 264.426 207.669L266.514 204.736C264.63 203.394 262.165 202.833 259.328 202.833V206.433ZM264.426 207.669C265.387 208.353 265.873 209.268 265.873 210.642H269.473C269.473 208.188 268.49 206.143 266.514 204.736L264.426 207.669ZM265.873 210.642C265.873 211.559 265.653 212.254 265.28 212.806L268.264 214.82C269.092 213.592 269.473 212.173 269.473 210.642H265.873ZM265.262 212.832C264.906 213.38 264.365 213.842 263.538 214.19L264.932 217.509C266.33 216.922 267.48 216.027 268.281 214.794L265.262 212.832ZM253.152 216.414H258.96V212.814H253.152V216.414ZM258.96 216.414C260.561 216.414 262.079 216.103 263.252 215.215L261.078 212.345C260.782 212.569 260.164 212.814 258.96 212.814V216.414ZM263.252 215.215C264.521 214.253 265.067 212.847 265.067 211.31H261.467C261.467 211.953 261.278 212.194 261.078 212.345L263.252 215.215ZM265.067 211.31C265.067 209.772 264.521 208.366 263.252 207.405L261.078 210.274C261.278 210.426 261.467 210.666 261.467 211.31H265.067ZM263.279 207.426C262.103 206.499 260.574 206.172 258.96 206.172V209.772C260.151 209.772 260.758 210.023 261.051 210.253L263.279 207.426ZM258.96 206.172H253.152V209.772H258.96V206.172ZM251.352 207.972V214.614H254.952V207.972H251.352ZM259.828 226.462C261.538 226.462 263.149 226.149 264.367 225.232C265.68 224.242 266.235 222.783 266.235 221.19H262.635C262.635 221.912 262.422 222.189 262.2 222.357C261.882 222.596 261.189 222.862 259.828 222.862V226.462ZM266.235 221.19C266.235 219.606 265.67 218.162 264.353 217.189C263.138 216.291 261.533 215.985 259.828 215.985V219.585C261.195 219.585 261.893 219.847 262.213 220.084C262.432 220.246 262.635 220.505 262.635 221.19H266.235ZM259.828 215.985H253.152V219.585H259.828V215.985ZM251.352 217.785V224.662H254.952V217.785H251.352ZM253.152 226.462H259.828V222.862H253.152V226.462ZM133.611 271.798L132.74 273.374L132.751 273.38L132.762 273.386L133.611 271.798ZM129.138 267.492L127.584 268.401L127.588 268.409L127.593 268.415L129.138 267.492ZM129.171 255.141L127.626 254.218L129.171 255.141ZM133.644 250.869L134.501 252.452L134.507 252.448L133.644 250.869ZM145.294 250.301L144.594 251.959L144.594 251.959L145.294 250.301ZM149.3 253.205L150.533 254.516L151.787 253.337L150.665 252.032L149.3 253.205ZM146.496 255.842L145.176 257.066L146.408 258.396L147.729 257.153L146.496 255.842ZM135.947 254.173L136.807 255.755L136.818 255.749L136.829 255.743L135.947 254.173ZM132.977 257.077L134.539 257.97L134.539 257.97L132.977 257.077ZM132.977 265.556L131.414 266.449L131.414 266.449L132.977 265.556ZM135.947 268.494L135.066 270.063L135.077 270.069L135.087 270.075L135.947 268.494ZM146.496 266.758L147.737 265.454L146.408 264.188L145.168 265.542L146.496 266.758ZM149.3 269.428L150.665 270.602L151.78 269.305L150.541 268.125L149.3 269.428ZM145.261 272.332L144.568 270.671L144.56 270.674L145.261 272.332ZM140.02 271.534C137.931 271.534 136.09 271.083 134.46 270.211L132.762 273.386C134.959 274.561 137.391 275.134 140.02 275.134V271.534ZM134.482 270.223C132.864 269.328 131.607 268.116 130.683 266.569L127.593 268.415C128.849 270.518 130.575 272.176 132.74 273.374L134.482 270.223ZM130.691 266.583C129.798 265.057 129.336 263.317 129.336 261.317H125.736C125.736 263.901 126.341 266.278 127.584 268.401L130.691 266.583ZM129.336 261.317C129.336 259.323 129.806 257.589 130.716 256.065L127.626 254.218C126.356 256.344 125.736 258.726 125.736 261.317H129.336ZM130.716 256.065C131.639 254.521 132.89 253.323 134.501 252.452L132.787 249.285C130.615 250.461 128.885 252.112 127.626 254.218L130.716 256.065ZM134.507 252.448C136.135 251.558 137.971 251.1 140.053 251.1V247.5C137.418 247.5 134.981 248.087 132.781 249.289L134.507 252.448ZM140.053 251.1C141.754 251.1 143.259 251.395 144.594 251.959L145.995 248.643C144.169 247.871 142.18 247.5 140.053 247.5V251.1ZM144.594 251.959C145.924 252.521 147.03 253.326 147.935 254.379L150.665 252.032C149.389 250.547 147.824 249.416 145.995 248.643L144.594 251.959ZM148.067 251.894L145.263 254.531L147.729 257.153L150.533 254.516L148.067 251.894ZM147.816 254.619C145.787 252.429 143.229 251.305 140.254 251.305V254.905C142.219 254.905 143.822 255.606 145.176 257.066L147.816 254.619ZM140.254 251.305C138.375 251.305 136.631 251.726 135.066 252.604L136.829 255.743C137.801 255.197 138.928 254.905 140.254 254.905V251.305ZM135.087 252.592C133.527 253.441 132.293 254.646 131.414 256.184L134.539 257.97C135.085 257.016 135.831 256.286 136.807 255.755L135.087 252.592ZM131.414 256.184C130.531 257.729 130.108 259.456 130.108 261.317H133.708C133.708 260.018 133.998 258.918 134.539 257.97L131.414 256.184ZM130.108 261.317C130.108 263.178 130.531 264.904 131.414 266.449L134.539 264.663C133.998 263.716 133.708 262.616 133.708 261.317H130.108ZM131.414 266.449C132.29 267.982 133.518 269.194 135.066 270.063L136.829 266.924C135.84 266.369 135.087 265.622 134.539 264.663L131.414 266.449ZM135.087 270.075C136.648 270.924 138.384 271.328 140.254 271.328V267.728C138.918 267.728 137.784 267.443 136.807 266.912L135.087 270.075ZM140.254 271.328C143.237 271.328 145.796 270.187 147.823 267.973L145.168 265.542C143.813 267.023 142.211 267.728 140.254 267.728V271.328ZM145.254 268.061L148.058 270.732L150.541 268.125L147.737 265.454L145.254 268.061ZM147.935 268.255C147.034 269.302 145.922 270.107 144.568 270.671L145.953 273.994C147.804 273.222 149.384 272.091 150.665 270.602L147.935 268.255ZM144.56 270.674C143.226 271.238 141.721 271.534 140.02 271.534V275.134C142.147 275.134 144.135 274.762 145.961 273.99L144.56 270.674ZM177.025 249.633H178.825V247.833H177.025V249.633ZM177.025 273V274.8H178.825V273H177.025ZM172.752 273H170.952V274.8H172.752V273ZM172.752 253.305H174.552V251.505H172.752V253.305ZM160.635 253.305V251.505H158.835V253.305H160.635ZM160.635 273V274.8H162.435V273H160.635ZM156.362 273H154.562V274.8H156.362V273ZM156.362 249.633V247.833H154.562V249.633H156.362ZM175.225 249.633V273H178.825V249.633H175.225ZM177.025 271.2H172.752V274.8H177.025V271.2ZM174.552 273V253.305H170.952V273H174.552ZM172.752 251.505H160.635V255.105H172.752V251.505ZM158.835 253.305V273H162.435V253.305H158.835ZM160.635 271.2H156.362V274.8H160.635V271.2ZM158.162 273V249.633H154.562V273H158.162ZM156.362 251.433H177.025V247.833H156.362V251.433ZM190.987 271.798L190.123 273.378L190.131 273.382L190.138 273.386L190.987 271.798ZM186.48 267.492L184.93 268.407L184.935 268.415L186.48 267.492ZM186.48 255.175L188.025 256.098L188.03 256.09L186.48 255.175ZM190.987 250.869L191.836 252.456L191.843 252.452L191.85 252.448L190.987 250.869ZM203.872 250.869L203.008 252.448L203.016 252.452L203.023 252.456L203.872 250.869ZM208.378 255.141L209.923 254.218L209.923 254.218L208.378 255.141ZM208.378 267.492L209.923 268.415L209.923 268.415L208.378 267.492ZM203.872 271.798L204.721 273.386L204.728 273.382L204.735 273.378L203.872 271.798ZM201.635 268.494L202.507 270.068L202.518 270.062L202.528 270.056L201.635 268.494ZM204.573 265.556L206.136 266.449L206.142 266.437L204.573 265.556ZM204.573 257.111L203.003 257.992L203.01 258.004L204.573 257.111ZM201.635 254.173L200.742 255.736L200.753 255.742L200.763 255.748L201.635 254.173ZM193.223 254.173L194.095 255.748L194.106 255.742L194.116 255.736L193.223 254.173ZM190.286 257.111L191.849 258.004L191.855 257.992L190.286 257.111ZM190.286 265.556L188.716 266.437L188.723 266.449L190.286 265.556ZM193.223 268.494L192.33 270.056L192.341 270.062L192.351 270.068L193.223 268.494ZM197.429 271.534C195.315 271.534 193.464 271.082 191.836 270.211L190.138 273.386C192.337 274.562 194.781 275.134 197.429 275.134V271.534ZM191.85 270.219C190.21 269.323 188.947 268.111 188.025 266.569L184.935 268.415C186.195 270.523 187.936 272.182 190.123 273.378L191.85 270.219ZM188.03 266.577C187.113 265.024 186.645 263.284 186.645 261.317H183.045C183.045 263.889 183.667 266.267 184.93 268.407L188.03 266.577ZM186.645 261.317C186.645 259.349 187.113 257.625 188.025 256.098L184.935 254.251C183.667 256.374 183.045 258.745 183.045 261.317H186.645ZM188.03 256.09C188.951 254.53 190.209 253.326 191.836 252.456L190.138 249.281C187.937 250.459 186.19 252.125 184.93 254.26L188.03 256.09ZM191.85 252.448C193.475 251.56 195.321 251.1 197.429 251.1V247.5C194.775 247.5 192.326 248.085 190.123 249.289L191.85 252.448ZM197.429 251.1C199.537 251.1 201.383 251.56 203.008 252.448L204.735 249.289C202.533 248.085 200.084 247.5 197.429 247.5V251.1ZM203.023 252.456C204.655 253.329 205.914 254.526 206.833 256.065L209.923 254.218C208.662 252.107 206.916 250.456 204.721 249.281L203.023 252.456ZM206.833 256.065C207.744 257.589 208.214 259.323 208.214 261.317H211.814C211.814 258.726 211.193 256.344 209.923 254.218L206.833 256.065ZM208.214 261.317C208.214 263.31 207.744 265.045 206.833 266.569L209.923 268.415C211.193 266.29 211.814 263.908 211.814 261.317H208.214ZM206.833 266.569C205.912 268.111 204.648 269.323 203.008 270.219L204.735 273.378C206.923 272.182 208.664 270.523 209.923 268.415L206.833 266.569ZM203.023 270.211C201.395 271.082 199.544 271.534 197.429 271.534V275.134C200.077 275.134 202.521 274.562 204.721 273.386L203.023 270.211ZM197.429 271.328C199.263 271.328 200.969 270.92 202.507 270.068L200.763 266.919C199.809 267.447 198.711 267.728 197.429 267.728V271.328ZM202.528 270.056C204.054 269.185 205.264 267.974 206.136 266.449L203.01 264.663C202.457 265.63 201.709 266.378 200.742 266.931L202.528 270.056ZM206.142 266.437C207.016 264.881 207.441 263.161 207.441 261.317H203.841C203.841 262.588 203.553 263.695 203.003 264.675L206.142 266.437ZM207.441 261.317C207.441 259.473 207.016 257.759 206.136 256.218L203.01 258.004C203.553 258.955 203.841 260.045 203.841 261.317H207.441ZM206.142 256.23C205.27 254.676 204.052 253.454 202.507 252.598L200.763 255.748C201.711 256.272 202.451 257.008 203.003 257.992L206.142 256.23ZM202.528 252.61C200.987 251.73 199.273 251.305 197.429 251.305V254.905C198.701 254.905 199.791 255.192 200.742 255.736L202.528 252.61ZM197.429 251.305C195.586 251.305 193.871 251.73 192.33 252.61L194.116 255.736C195.068 255.192 196.157 254.905 197.429 254.905V251.305ZM192.351 252.598C190.806 253.454 189.588 254.676 188.716 256.23L191.855 257.992C192.407 257.008 193.148 256.272 194.095 255.748L192.351 252.598ZM188.723 256.218C187.842 257.759 187.418 259.473 187.418 261.317H191.018C191.018 260.045 191.305 258.955 191.849 258.004L188.723 256.218ZM187.418 261.317C187.418 263.161 187.842 264.881 188.716 266.437L191.855 264.675C191.305 263.695 191.018 262.588 191.018 261.317H187.418ZM188.723 266.449C189.594 267.974 190.805 269.185 192.33 270.056L194.116 266.931C193.149 266.378 192.401 265.63 191.849 264.663L188.723 266.449ZM192.351 270.068C193.889 270.92 195.596 271.328 197.429 271.328V267.728C196.147 267.728 195.05 267.447 194.095 266.919L192.351 270.068ZM232.699 250.635L231.964 252.278L231.973 252.282L232.699 250.635ZM236.171 253.506L234.657 254.479L234.657 254.479L236.171 253.506ZM236.171 262.385L237.685 263.358L237.689 263.352L237.693 263.346L236.171 262.385ZM232.699 265.256L231.973 263.609L231.964 263.613L232.699 265.256ZM222.151 266.257V264.457H220.351V266.257H222.151ZM222.151 273V274.8H223.951V273H222.151ZM217.811 273H216.011V274.8H217.811V273ZM217.811 249.633V247.833H216.011V249.633H217.811ZM231.531 261.383L230.391 259.99L230.391 259.99L231.531 261.383ZM231.531 254.507L230.391 255.9L230.391 255.9L231.531 254.507ZM222.151 253.305V251.505H220.351V253.305H222.151ZM222.151 262.585H220.351V264.385H222.151V262.585ZM227.425 251.433C229.256 251.433 230.753 251.735 231.964 252.278L233.435 248.992C231.664 248.199 229.645 247.833 227.425 247.833V251.433ZM231.973 252.282C233.202 252.824 234.068 253.564 234.657 254.479L237.685 252.532C236.671 250.955 235.223 249.781 233.426 248.988L231.973 252.282ZM234.657 254.479C235.243 255.392 235.573 256.522 235.573 257.945H239.173C239.173 255.942 238.701 254.112 237.685 252.532L234.657 254.479ZM235.573 257.945C235.573 259.341 235.246 260.478 234.649 261.424L237.693 263.346C238.698 261.754 239.173 259.932 239.173 257.945H235.573ZM234.657 261.412C234.068 262.327 233.202 263.066 231.973 263.609L233.426 266.903C235.223 266.11 236.671 264.935 237.685 263.358L234.657 261.412ZM231.964 263.613C230.753 264.155 229.256 264.457 227.425 264.457V268.057C229.645 268.057 231.664 267.691 233.435 266.898L231.964 263.613ZM227.425 264.457H222.151V268.057H227.425V264.457ZM220.351 266.257V273H223.951V266.257H220.351ZM222.151 271.2H217.811V274.8H222.151V271.2ZM219.611 273V249.633H216.011V273H219.611ZM217.811 251.433H227.425V247.833H217.811V251.433ZM227.225 264.385C229.334 264.385 231.244 263.944 232.671 262.777L230.391 259.99C229.859 260.426 228.899 260.785 227.225 260.785V264.385ZM232.671 262.777C234.144 261.571 234.8 259.869 234.8 257.945H231.2C231.2 259.004 230.876 259.594 230.391 259.99L232.671 262.777ZM234.8 257.945C234.8 256.022 234.144 254.32 232.671 253.114L230.391 255.9C230.876 256.297 231.2 256.887 231.2 257.945H234.8ZM232.671 253.114C231.244 251.947 229.334 251.505 227.225 251.505V255.105C228.899 255.105 229.859 255.465 230.391 255.9L232.671 253.114ZM227.225 251.505H222.151V255.105H227.225V251.505ZM220.351 253.305V262.585H223.951V253.305H220.351ZM222.151 264.385H227.225V260.785H222.151V264.385ZM260.751 253.305V255.105H262.551V253.305H260.751ZM253.006 253.305V251.505H251.206V253.305H253.006ZM253.006 273V274.8H254.806V273H253.006ZM248.7 273H246.9V274.8H248.7V273ZM248.7 253.305H250.5V251.505H248.7V253.305ZM240.989 253.305H239.189V255.105H240.989V253.305ZM240.989 249.633V247.833H239.189V249.633H240.989ZM260.751 249.633H262.551V247.833H260.751V249.633ZM260.751 251.505H253.006V255.105H260.751V251.505ZM251.206 253.305V273H254.806V253.305H251.206ZM253.006 271.2H248.7V274.8H253.006V271.2ZM250.5 273V253.305H246.9V273H250.5ZM248.7 251.505H240.989V255.105H248.7V251.505ZM242.789 253.305V249.633H239.189V253.305H242.789ZM240.989 251.433H260.751V247.833H240.989V251.433ZM258.951 249.633V253.305H262.551V249.633H258.951ZM281.808 267.592L283.461 266.878L282.992 265.792H281.808V267.592ZM270.125 267.592V265.792H268.935L268.469 266.887L270.125 267.592ZM267.822 273V274.8H269.012L269.478 273.705L267.822 273ZM263.349 273L261.707 272.261L260.565 274.8H263.349V273ZM273.864 249.633V247.833H272.7L272.222 248.895L273.864 249.633ZM278.137 249.633L279.777 248.893L279.299 247.833H278.137V249.633ZM288.685 273V274.8H291.472L290.326 272.259L288.685 273ZM284.145 273L282.493 273.714L282.962 274.8H284.145V273ZM280.373 264.187V265.987H283.11L282.026 263.475L280.373 264.187ZM275.967 253.973L277.62 253.26L275.961 249.414L274.312 253.265L275.967 253.973ZM271.594 264.187L269.939 263.479L268.865 265.987H271.594V264.187ZM281.808 265.792H270.125V269.392H281.808V265.792ZM268.469 266.887L266.166 272.295L269.478 273.705L271.781 268.298L268.469 266.887ZM267.822 271.2H263.349V274.8H267.822V271.2ZM264.99 273.739L275.505 250.372L272.222 248.895L261.707 272.261L264.99 273.739ZM273.864 251.433H278.137V247.833H273.864V251.433ZM276.496 250.374L287.044 273.741L290.326 272.259L279.777 248.893L276.496 250.374ZM288.685 271.2H284.145V274.8H288.685V271.2ZM285.797 272.286L283.461 266.878L280.156 268.306L282.493 273.714L285.797 272.286ZM282.026 263.475L277.62 253.26L274.314 254.686L278.72 264.9L282.026 263.475ZM274.312 253.265L269.939 263.479L273.249 264.896L277.622 254.681L274.312 253.265ZM271.594 265.987H280.373V262.387H271.594V265.987Z" fill="#171921"/>
<path d="M34 64H0L34 98V64Z" fill="#F9DD47"/>
</svg>
