<svg width="129" height="30" viewBox="0 0 129 30" fill="none" xmlns="http://www.w3.org/2000/svg">
<path d="M8.10275 7.42332L7.94987 5.81618C7.64411 5.58658 7.10904 5.35699 6.57396 5.35699C5.65669 5.35699 5.19805 5.73965 5.19805 6.58148C5.19805 8.41822 12.3069 8.41822 12.3069 13.0866C12.3069 16.3774 10.0137 18.1376 6.11532 18.1376C2.75198 18.1376 0.76455 17.1427 0.76455 17.1427L0.68811 12.3978L3.89857 12.2447L4.28077 14.7703C4.73941 14.9233 5.19805 14.9999 5.65669 14.9999C7.4148 14.9999 7.79699 14.4641 7.79699 13.7754C7.79699 12.0152 0.68811 12.2447 0.68811 7.1172C0.68811 4.3621 2.90486 2.21924 5.886 2.21924C6.80328 2.21924 7.79699 2.67842 8.56139 3.13761L9.09647 2.52536H11.6954V7.49985H8.10275V7.42332Z" fill="white"/>
<path d="M19.0335 9.41327V13.2398C19.0335 14.2347 19.3392 14.8469 20.1801 14.8469C20.9445 14.8469 21.6324 14.6939 21.6324 14.6939V17.449C21.6324 17.449 20.9445 17.9847 18.8042 17.9847C16.0523 17.9847 14.6 17.0663 14.6 14.3112V9.48981H13.377V6.42858L14.6764 6.12246L15.2879 2.60205H19.0335V6.12246H21.7853V9.41327H19.0335Z" fill="white"/>
<path d="M23.5432 17.6788L23.3903 14.6175L24.6133 14.4645V9.41344L23.2374 9.18385L23.3903 6.12263H27.9002L28.2824 7.19406H28.4353C28.4353 7.19406 29.1997 5.58691 31.1871 5.58691C32.8688 5.58691 33.7097 6.12263 33.7097 6.12263V10.8675H30.5756L30.4227 9.10732C29.2762 9.10732 28.9704 9.94916 28.9704 10.0257V14.6941L30.6521 14.8471L30.4227 17.7553H23.5432V17.6788Z" fill="white"/>
<path d="M41.8889 14.3114V13.0104C39.9014 13.1634 39.137 13.3165 39.137 14.1583C39.137 15.0002 39.5192 15.3063 40.2836 15.3063C41.4302 15.2298 41.8124 14.3879 41.8889 14.3114ZM35.6973 10.2553L35.8501 5.81651H38.4491L38.7548 6.42875C39.4428 5.96957 40.4365 5.58691 41.6595 5.58691C44.182 5.58691 46.1695 6.88793 46.1695 10.3318V14.6175L47.3925 14.7706L47.1632 17.6788H42.5768L42.1946 16.8369H42.0417C42.0417 16.8369 41.3538 18.1379 38.8313 18.1379C36.2323 18.1379 34.5507 16.6839 34.5507 14.4645C34.5507 11.0206 38.7548 10.5614 41.8124 10.2553C41.736 8.95426 41.3538 8.64814 40.4365 8.64814C39.7486 8.64814 39.2899 8.87773 39.0606 9.03079L38.9842 10.2553H35.6973Z" fill="white"/>
<path d="M53.9662 9.41327V13.2398C53.9662 14.2347 54.272 14.8469 55.1128 14.8469C55.8772 14.8469 56.5652 14.6939 56.5652 14.6939V17.449C56.5652 17.449 55.8772 17.9847 53.7369 17.9847C50.9851 17.9847 49.5327 17.0663 49.5327 14.3112V9.48981H48.3097V6.42858L49.6092 6.12246L50.2207 2.60205H53.9662V6.12246H56.718V9.41327H53.9662Z" fill="white"/>
<path d="M62.3749 10.4849H65.6618C65.6618 10.4849 65.6618 10.1788 65.6618 10.0257C65.6618 9.41344 65.356 8.72467 64.133 8.72467C63.0628 8.64814 62.5278 9.26038 62.3749 10.4849ZM62.4513 13.3165C62.7571 14.6175 63.5215 15.0002 64.8209 15.0002C66.2733 15.0002 67.4199 13.8522 67.4199 13.8522L69.4073 15.9951C69.4073 15.9951 67.955 18.1379 64.6681 18.1379C60.5403 18.1379 58.0178 16.0716 58.0178 11.7859C58.0178 7.57671 60.7696 5.58691 64.2094 5.58691C67.8021 5.58691 69.7131 7.50018 69.7131 10.791C69.7131 12.2451 69.1016 13.24 69.1016 13.24H62.4513V13.3165Z" fill="white"/>
<path d="M75.3696 10.0253C75.3696 11.2498 75.9811 11.709 76.7455 11.709C77.5099 11.709 78.045 11.2498 78.045 9.9488C78.045 8.87737 77.4335 8.64778 76.7455 8.64778C75.9811 8.57125 75.3696 8.9539 75.3696 10.0253ZM75.2167 18.7498C74.911 18.9029 74.6816 19.209 74.6816 19.5151C74.6816 20.1274 75.2932 20.8161 76.8984 20.8161C78.5036 20.8161 79.0387 20.357 79.0387 19.7447C79.1151 18.5968 77.0513 19.1325 75.2167 18.7498ZM82.2492 9.33656C82.3256 9.56615 82.3256 9.79574 82.3256 10.0253C82.3256 12.9335 79.8031 14.4641 76.8984 14.4641C76.8984 14.4641 75.5225 14.4641 75.5225 14.9998C75.5225 15.3825 75.7518 15.6121 78.3507 15.6886C81.4848 15.7651 83.3193 16.8366 83.3193 19.3621C83.3193 21.811 81.6376 24.0304 76.9748 24.0304C72.2356 24.0304 70.7068 21.8876 70.7068 19.5917C70.7068 18.2141 71.3947 17.3723 72.3885 16.8366C72.1591 16.3774 72.0827 15.9182 72.0827 15.2294C72.0827 14.3876 72.4649 13.7753 72.9235 13.3927C71.8534 12.6274 71.089 11.4794 71.089 10.0253C71.089 7.04064 73.9937 5.66309 76.8984 5.66309C78.1214 5.66309 79.268 5.89268 80.1853 6.42839L82.8607 6.12227L83.09 9.26003L82.2492 9.33656Z" fill="white"/>
<path d="M84.5424 17.6787L84.3131 14.5409L85.5361 14.3879V9.33684L84.3895 9.18378L84.6189 6.12256H89.8932V14.6175L91.1162 14.7705L90.8869 17.6787H84.5424Z" fill="white"/>
<path d="M101.053 9.33684L99.9831 9.18378L100.136 6.12256H105.41V14.6175L106.633 14.7705L106.48 17.6787H101.665L101.359 17.0664H101.206C101.206 17.0664 100.212 18.1379 97.6899 18.1379C94.8616 18.1379 93.4093 16.3777 93.4093 13.546V9.33684L92.3391 9.18378L92.492 6.12256H97.7663V12.7807C97.7663 13.6991 97.9956 14.6175 99.2187 14.6175C100.289 14.6175 101.053 14.0052 101.053 14.0052V9.33684Z" fill="white"/>
<path d="M122.915 17.6788V10.3318C122.915 9.26038 122.609 9.10732 121.768 9.10732C121.233 9.10732 120.775 9.41344 120.622 9.48997V14.541L121.845 14.6941L121.615 17.6022H116.188V10.2553C116.188 9.18385 115.882 9.03079 115.042 9.03079C114.43 9.03079 113.971 9.41344 113.819 9.41344V14.4645L115.042 14.6175L114.812 17.5257H108.391L108.239 14.4645L109.462 14.3114V9.26038L108.391 9.10732L108.621 6.0461H113.36L113.589 6.65834H113.742C113.742 6.65834 114.583 5.58691 116.647 5.58691C118.023 5.58691 119.093 5.96957 119.704 6.65834H119.857C119.857 6.65834 120.927 5.58691 123.374 5.58691C126.125 5.58691 127.348 6.8114 127.348 9.56651V14.541L128.571 14.6941L128.342 17.6022H122.915V17.6788Z" fill="white"/>
<path d="M89.2814 2.14286C89.2814 3.29082 88.2876 4.28571 87.141 4.28571C85.9944 4.28571 85.0007 3.29082 85.0007 2.14286C85.0007 0.994898 85.9944 0 87.141 0C88.3641 0 89.2814 0.918367 89.2814 2.14286Z" fill="white"/>
<path fill-rule="evenodd" clip-rule="evenodd" d="M7.3382 25.0255V21.5817H5.96229L5.65653 21.9643C5.19789 21.6582 4.66282 21.4286 3.97486 21.4286C1.75811 21.4286 0 23.1123 0 25.5612C0 28.0102 1.22303 30 4.35706 30C6.87957 30 7.94972 28.4694 7.94972 28.4694L7.03244 26.9388C7.03244 26.9388 5.96229 28.0868 4.66282 28.0868C3.2869 28.0868 2.59895 27.0153 2.59895 25.5612C2.59895 24.0306 3.36334 23.2653 4.4335 23.2653C4.89214 23.2653 5.19789 23.4184 5.35077 23.5714L5.50365 24.949H7.3382V25.0255ZM11.8481 28.3929C11.0073 28.3929 10.778 27.7041 10.778 26.6327C10.778 25.5612 11.0073 24.949 11.8481 24.949C12.689 24.949 12.9183 25.5612 12.9183 26.6327C12.9183 27.7041 12.689 28.3929 11.8481 28.3929ZM11.8481 30C13.9885 30 15.3644 28.6225 15.3644 26.5561C15.3644 24.4898 14.0649 23.2653 11.8481 23.2653C9.63139 23.2653 8.33192 24.4898 8.33192 26.5561C8.33192 28.6225 9.55495 30 11.8481 30ZM19.645 29.6939L19.7214 28.1633L19.1099 28.0868V25.5612C19.1099 25.5612 19.4921 25.2551 20.1036 25.2551C20.7916 25.2551 20.868 25.4082 20.868 25.9439V29.7704H23.7727L23.8492 28.2398L23.1612 28.1633V25.5612C23.1612 24.0306 22.3968 23.3419 20.868 23.3419C19.4921 23.3419 18.957 23.9541 18.957 23.9541H18.8806L18.7277 23.648H16.2052L16.1288 25.3317L16.7403 25.4082V28.0868L16.1288 28.1633L16.2052 29.847H19.645V29.6939ZM30.1936 22.5766V20.2806H28.8942L28.7413 20.5868C28.4355 20.4337 28.0533 20.2041 27.5183 20.2041C25.913 20.2041 25.1486 21.2755 25.1486 22.5766V23.5714L24.4607 23.648V25.3317H25.2251V28.0102L24.5371 28.0868L24.6136 29.6939H28.0533L28.1298 28.1633L27.4418 28.0868V25.2551H29.1235V23.4949H27.4418V22.7296C27.4418 22.0408 27.5947 21.8112 27.9769 21.8112C28.1298 21.8112 28.2827 21.8878 28.3591 21.9643L28.4355 22.5H30.1936V22.5766ZM33.0984 24.8725C33.7099 24.8725 33.9392 25.2551 33.9392 25.5612C33.9392 25.6378 33.9392 25.7908 33.9392 25.7908H32.1811C32.2575 25.1786 32.4868 24.8725 33.0984 24.8725ZM35.7737 27.398C35.7737 27.398 36.0795 26.8623 36.0795 26.097C36.0795 24.3368 35.0858 23.2653 33.0984 23.2653C31.2638 23.2653 29.8115 24.3368 29.8115 26.5561C29.8115 28.8521 31.1874 29.9235 33.4041 29.9235C35.1622 29.9235 35.9266 28.7755 35.9266 28.7755L34.8565 27.6276C34.8565 27.6276 34.2449 28.2398 33.4806 28.2398C32.7926 28.2398 32.334 28.0102 32.1811 27.3214H35.7737V27.398ZM40.5894 29.6939L40.6659 28.1633L39.7486 28.0868V25.5612C39.7486 25.4847 39.9015 25.1021 40.513 25.1021L40.5894 26.0204H42.2711V23.4949C42.2711 23.4949 41.8125 23.1888 40.9716 23.1888C39.9015 23.1888 39.5193 24.0306 39.5193 24.0306H39.4428L39.2135 23.4184H36.7675L36.691 25.1021L37.4554 25.2551V27.9337L36.8439 28.0102L36.9203 29.6939H40.5894ZM46.3224 24.8725C46.9339 24.8725 47.1632 25.2551 47.1632 25.5612C47.1632 25.6378 47.1632 25.7908 47.1632 25.7908H45.4051C45.4816 25.1786 45.7873 24.8725 46.3224 24.8725ZM48.9978 27.398C48.9978 27.398 49.3036 26.8623 49.3036 26.097C49.3036 24.3368 48.3098 23.2653 46.3224 23.2653C44.4879 23.2653 43.0355 24.3368 43.0355 26.5561C43.0355 28.8521 44.4114 29.9235 46.6282 29.9235C48.3863 29.9235 49.1507 28.7755 49.1507 28.7755L48.0805 27.6276C48.0805 27.6276 47.469 28.2398 46.7046 28.2398C46.0167 28.2398 45.558 28.0102 45.4051 27.3214H48.9978V27.398ZM53.5842 29.6939L53.6606 28.1633L52.9727 28.0868V25.5612C52.9727 25.5612 53.3549 25.2551 53.9664 25.2551C54.6543 25.2551 54.7308 25.4082 54.7308 25.9439V29.7704H57.6355L57.7119 28.2398L57.024 28.1633V25.5612C57.024 24.0306 56.2596 23.3419 54.7308 23.3419C53.3549 23.3419 52.8198 23.9541 52.8198 23.9541H52.7433V23.5714H50.2208L50.1444 25.2551L50.7559 25.3317V28.0102L50.1444 28.0868L50.2208 29.7704H53.5842V29.6939ZM64.1328 26.25V23.4184H62.6805L62.5276 23.7245C62.2219 23.4949 61.7632 23.2653 61.3046 23.2653C59.5465 23.2653 58.3234 24.5663 58.3234 26.4796C58.3234 28.5459 59.3936 30 61.8397 30C63.8271 30 64.515 28.699 64.515 28.699L63.4449 27.551C63.4449 27.551 62.7569 28.3163 62.069 28.3163C61.2281 28.3163 60.7695 27.7806 60.7695 26.4796C60.7695 25.1786 61.1517 24.949 61.6103 24.949C61.9161 24.949 62.069 25.1021 62.2219 25.1786L62.2983 26.25H64.1328ZM68.2606 24.8725C68.8721 24.8725 69.1014 25.2551 69.1014 25.5612C69.1014 25.6378 69.1014 25.7908 69.1014 25.7908H67.3433C67.4197 25.1786 67.7255 24.8725 68.2606 24.8725ZM70.936 27.398C70.936 27.398 71.2417 26.8623 71.2417 26.097C71.2417 24.3368 70.248 23.2653 68.2606 23.2653C66.426 23.2653 64.9737 24.3368 64.9737 26.5561C64.9737 28.8521 66.3496 29.9235 68.5663 29.9235C70.3244 29.9235 71.0888 28.7755 71.0888 28.7755L70.0187 27.6276C70.0187 27.6276 69.4072 28.2398 68.6428 28.2398C67.9548 28.2398 67.4962 28.0102 67.3433 27.3214H70.936V27.398Z" fill="white"/>
</svg>
